<svg xmlns="http://www.w3.org/2000/svg" width="1200" height="680" viewBox="0 0 1200 680" role="img" data-entry="111.99057378" data-stop="107.09173848" data-target-1="121.78824436" data-target-2="131.58591495" data-swing-low="109.13257196" data-signal-timestamp="2018-10-03T00:00:00">
<title>JNJ LOSER trade evidence</title>
<desc>Daily candles with frozen swing strategy levels for signal 2018-10-03.</desc>
<rect width="1200" height="680" fill="#020617"/>
<text x="72" y="34" fill="#f8fafc" font-family="sans-serif" font-size="22" font-weight="600">JNJ · Johnson &amp; Johnson · LOSER</text>
<text x="72" y="62" fill="#94a3b8" font-family="sans-serif" font-size="14">Signal 2018-10-03T00:00:00 · Regime Bull · Engine score 90.0 · WATCH</text>
<line x1="72" y1="594.00" x2="1120" y2="594.00" stroke="#1e293b" stroke-width="1"/>
<text x="1130" y="598.00" fill="#64748b" font-family="monospace" font-size="11">100.19</text>
<line x1="72" y1="493.60" x2="1120" y2="493.60" stroke="#1e293b" stroke-width="1"/>
<text x="1130" y="497.60" fill="#64748b" font-family="monospace" font-size="11">106.83</text>
<line x1="72" y1="393.20" x2="1120" y2="393.20" stroke="#1e293b" stroke-width="1"/>
<text x="1130" y="397.20" fill="#64748b" font-family="monospace" font-size="11">113.46</text>
<line x1="72" y1="292.80" x2="1120" y2="292.80" stroke="#1e293b" stroke-width="1"/>
<text x="1130" y="296.80" fill="#64748b" font-family="monospace" font-size="11">120.10</text>
<line x1="72" y1="192.40" x2="1120" y2="192.40" stroke="#1e293b" stroke-width="1"/>
<text x="1130" y="196.40" fill="#64748b" font-family="monospace" font-size="11">126.73</text>
<line x1="72" y1="92.00" x2="1120" y2="92.00" stroke="#1e293b" stroke-width="1"/>
<text x="1130" y="96.00" fill="#64748b" font-family="monospace" font-size="11">133.36</text>
<line x1="72.00" y1="537.13" x2="72.00" y2="567.11" stroke="#22c55e" stroke-width="1"/>
<rect x="68.00" y="540.28" width="8.00" height="25.73" fill="#22c55e"/>
<line x1="88.90" y1="541.86" x2="88.90" y2="561.04" stroke="#ef4444" stroke-width="1"/>
<rect x="84.90" y="542.95" width="8.00" height="6.31" fill="#ef4444"/>
<line x1="105.81" y1="517.71" x2="105.81" y2="534.34" stroke="#22c55e" stroke-width="1"/>
<rect x="101.81" y="529.12" width="8.00" height="4.61" fill="#22c55e"/>
<line x1="122.71" y1="504.96" x2="122.71" y2="533.24" stroke="#22c55e" stroke-width="1"/>
<rect x="118.71" y="513.70" width="8.00" height="19.06" fill="#22c55e"/>
<line x1="139.61" y1="502.29" x2="139.61" y2="517.34" stroke="#22c55e" stroke-width="1"/>
<rect x="135.61" y="506.18" width="8.00" height="4.73" fill="#22c55e"/>
<line x1="156.52" y1="500.47" x2="156.52" y2="511.03" stroke="#22c55e" stroke-width="1"/>
<rect x="152.52" y="501.93" width="8.00" height="2.91" fill="#22c55e"/>
<line x1="173.42" y1="496.59" x2="173.42" y2="507.27" stroke="#22c55e" stroke-width="1"/>
<rect x="169.42" y="500.47" width="8.00" height="3.03" fill="#22c55e"/>
<line x1="190.32" y1="496.10" x2="190.32" y2="519.29" stroke="#ef4444" stroke-width="1"/>
<rect x="186.32" y="497.44" width="8.00" height="19.91" fill="#ef4444"/>
<line x1="207.23" y1="499.75" x2="207.23" y2="521.59" stroke="#22c55e" stroke-width="1"/>
<rect x="203.23" y="508.85" width="8.00" height="9.35" fill="#22c55e"/>
<line x1="224.13" y1="501.81" x2="224.13" y2="520.26" stroke="#22c55e" stroke-width="1"/>
<rect x="220.13" y="508.00" width="8.00" height="4.61" fill="#22c55e"/>
<line x1="241.03" y1="506.18" x2="241.03" y2="516.74" stroke="#ef4444" stroke-width="1"/>
<rect x="237.03" y="509.70" width="8.00" height="5.10" fill="#ef4444"/>
<line x1="257.94" y1="510.67" x2="257.94" y2="521.71" stroke="#ef4444" stroke-width="1"/>
<rect x="253.94" y="514.43" width="8.00" height="3.88" fill="#ef4444"/>
<line x1="274.84" y1="511.64" x2="274.84" y2="524.38" stroke="#ef4444" stroke-width="1"/>
<rect x="270.84" y="513.82" width="8.00" height="4.13" fill="#ef4444"/>
<line x1="291.74" y1="512.73" x2="291.74" y2="529.36" stroke="#ef4444" stroke-width="1"/>
<rect x="287.74" y="518.07" width="8.00" height="5.34" fill="#ef4444"/>
<line x1="308.65" y1="521.59" x2="308.65" y2="534.34" stroke="#ef4444" stroke-width="1"/>
<rect x="304.65" y="523.78" width="8.00" height="6.07" fill="#ef4444"/>
<line x1="325.55" y1="526.81" x2="325.55" y2="540.41" stroke="#ef4444" stroke-width="1"/>
<rect x="321.55" y="536.52" width="8.00" height="2.06" fill="#ef4444"/>
<line x1="342.45" y1="523.53" x2="342.45" y2="545.50" stroke="#22c55e" stroke-width="1"/>
<rect x="338.45" y="527.30" width="8.00" height="8.25" fill="#22c55e"/>
<line x1="359.35" y1="497.56" x2="359.35" y2="525.60" stroke="#22c55e" stroke-width="1"/>
<rect x="355.35" y="502.42" width="8.00" height="17.72" fill="#22c55e"/>
<line x1="376.26" y1="471.83" x2="376.26" y2="505.94" stroke="#22c55e" stroke-width="1"/>
<rect x="372.26" y="478.26" width="8.00" height="24.52" fill="#22c55e"/>
<line x1="393.16" y1="446.10" x2="393.16" y2="483.97" stroke="#22c55e" stroke-width="1"/>
<rect x="389.16" y="449.01" width="8.00" height="23.67" fill="#22c55e"/>
<line x1="410.06" y1="442.34" x2="410.06" y2="468.19" stroke="#ef4444" stroke-width="1"/>
<rect x="406.06" y="447.56" width="8.00" height="20.03" fill="#ef4444"/>
<line x1="426.97" y1="463.58" x2="426.97" y2="478.87" stroke="#ef4444" stroke-width="1"/>
<rect x="422.97" y="465.03" width="8.00" height="11.53" fill="#ef4444"/>
<line x1="443.87" y1="465.88" x2="443.87" y2="482.75" stroke="#22c55e" stroke-width="1"/>
<rect x="439.87" y="470.49" width="8.00" height="6.07" fill="#22c55e"/>
<line x1="460.77" y1="457.87" x2="460.77" y2="473.89" stroke="#22c55e" stroke-width="1"/>
<rect x="456.77" y="460.30" width="8.00" height="10.20" fill="#22c55e"/>
<line x1="477.68" y1="448.08" x2="477.68" y2="470.56" stroke="#ef4444" stroke-width="1"/>
<rect x="473.68" y="454.80" width="8.00" height="7.09" fill="#ef4444"/>
<line x1="494.58" y1="462.13" x2="494.58" y2="474.47" stroke="#ef4444" stroke-width="1"/>
<rect x="490.58" y="463.60" width="8.00" height="5.62" fill="#ef4444"/>
<line x1="511.48" y1="461.64" x2="511.48" y2="473.86" stroke="#22c55e" stroke-width="1"/>
<rect x="507.48" y="462.62" width="8.00" height="6.60" fill="#22c55e"/>
<line x1="528.39" y1="453.58" x2="528.39" y2="465.80" stroke="#22c55e" stroke-width="1"/>
<rect x="524.39" y="461.52" width="8.00" height="3.05" fill="#22c55e"/>
<line x1="545.29" y1="460.91" x2="545.29" y2="473.49" stroke="#22c55e" stroke-width="1"/>
<rect x="541.29" y="464.70" width="8.00" height="1.20" fill="#22c55e"/>
<line x1="562.19" y1="463.96" x2="562.19" y2="479.97" stroke="#ef4444" stroke-width="1"/>
<rect x="558.19" y="464.70" width="8.00" height="11.85" fill="#ef4444"/>
<line x1="579.10" y1="449.42" x2="579.10" y2="479.73" stroke="#22c55e" stroke-width="1"/>
<rect x="575.10" y="450.40" width="8.00" height="29.08" fill="#22c55e"/>
<line x1="596.00" y1="432.69" x2="596.00" y2="458.71" stroke="#22c55e" stroke-width="1"/>
<rect x="592.00" y="438.06" width="8.00" height="16.74" fill="#22c55e"/>
<line x1="612.90" y1="428.04" x2="612.90" y2="451.75" stroke="#22c55e" stroke-width="1"/>
<rect x="608.90" y="432.56" width="8.00" height="6.60" fill="#22c55e"/>
<line x1="629.81" y1="418.51" x2="629.81" y2="435.74" stroke="#ef4444" stroke-width="1"/>
<rect x="625.81" y="430.00" width="8.00" height="3.91" fill="#ef4444"/>
<line x1="646.71" y1="413.14" x2="646.71" y2="433.79" stroke="#22c55e" stroke-width="1"/>
<rect x="642.71" y="418.02" width="8.00" height="10.63" fill="#22c55e"/>
<line x1="663.61" y1="399.94" x2="663.61" y2="417.41" stroke="#22c55e" stroke-width="1"/>
<rect x="659.61" y="407.64" width="8.00" height="5.62" fill="#22c55e"/>
<line x1="680.52" y1="393.95" x2="680.52" y2="411.79" stroke="#22c55e" stroke-width="1"/>
<rect x="676.52" y="401.16" width="8.00" height="1.20" fill="#22c55e"/>
<line x1="697.42" y1="395.54" x2="697.42" y2="410.82" stroke="#ef4444" stroke-width="1"/>
<rect x="693.42" y="399.82" width="8.00" height="6.23" fill="#ef4444"/>
<line x1="714.32" y1="394.93" x2="714.32" y2="409.84" stroke="#22c55e" stroke-width="1"/>
<rect x="710.32" y="400.31" width="8.00" height="7.70" fill="#22c55e"/>
<line x1="731.23" y1="389.56" x2="731.23" y2="401.90" stroke="#22c55e" stroke-width="1"/>
<rect x="727.23" y="393.22" width="8.00" height="3.30" fill="#22c55e"/>
<line x1="748.13" y1="387.72" x2="748.13" y2="399.21" stroke="#ef4444" stroke-width="1"/>
<rect x="744.13" y="390.53" width="8.00" height="3.67" fill="#ef4444"/>
<line x1="765.03" y1="373.67" x2="765.03" y2="393.59" stroke="#22c55e" stroke-width="1"/>
<rect x="761.03" y="375.63" width="8.00" height="14.17" fill="#22c55e"/>
<line x1="781.94" y1="361.58" x2="781.94" y2="379.17" stroke="#22c55e" stroke-width="1"/>
<rect x="777.94" y="364.63" width="8.00" height="8.55" fill="#22c55e"/>
<line x1="798.84" y1="369.27" x2="798.84" y2="397.01" stroke="#ef4444" stroke-width="1"/>
<rect x="794.84" y="374.16" width="8.00" height="19.92" fill="#ef4444"/>
<line x1="815.74" y1="388.09" x2="815.74" y2="419.37" stroke="#ef4444" stroke-width="1"/>
<rect x="811.74" y="393.34" width="8.00" height="23.09" fill="#ef4444"/>
<line x1="832.65" y1="399.82" x2="832.65" y2="424.74" stroke="#ef4444" stroke-width="1"/>
<rect x="828.65" y="412.65" width="8.00" height="9.65" fill="#ef4444"/>
<line x1="849.55" y1="404.95" x2="849.55" y2="429.51" stroke="#ef4444" stroke-width="1"/>
<rect x="845.55" y="418.76" width="8.00" height="2.81" fill="#ef4444"/>
<line x1="866.45" y1="417.41" x2="866.45" y2="431.46" stroke="#22c55e" stroke-width="1"/>
<rect x="862.45" y="422.18" width="8.00" height="1.20" fill="#22c55e"/>
<line x1="883.35" y1="401.65" x2="883.35" y2="424.26" stroke="#22c55e" stroke-width="1"/>
<rect x="879.35" y="403.61" width="8.00" height="17.47" fill="#22c55e"/>
<line x1="900.26" y1="390.90" x2="900.26" y2="404.10" stroke="#22c55e" stroke-width="1"/>
<rect x="896.26" y="393.95" width="8.00" height="8.43" fill="#22c55e"/>
<line x1="917.16" y1="384.30" x2="917.16" y2="413.50" stroke="#ef4444" stroke-width="1"/>
<rect x="913.16" y="393.22" width="8.00" height="18.45" fill="#ef4444"/>
<line x1="934.06" y1="405.56" x2="934.06" y2="432.56" stroke="#22c55e" stroke-width="1"/>
<rect x="930.06" y="407.76" width="8.00" height="9.77" fill="#22c55e"/>
<line x1="950.97" y1="396.76" x2="950.97" y2="417.41" stroke="#ef4444" stroke-width="1"/>
<rect x="946.97" y="402.26" width="8.00" height="8.55" fill="#ef4444"/>
<line x1="967.87" y1="403.73" x2="967.87" y2="416.68" stroke="#22c55e" stroke-width="1"/>
<rect x="963.87" y="407.27" width="8.00" height="5.99" fill="#22c55e"/>
<line x1="984.77" y1="404.46" x2="984.77" y2="426.58" stroke="#22c55e" stroke-width="1"/>
<rect x="980.77" y="409.59" width="8.00" height="5.62" fill="#22c55e"/>
<line x1="1001.68" y1="394.20" x2="1001.68" y2="427.55" stroke="#ef4444" stroke-width="1"/>
<rect x="997.68" y="407.76" width="8.00" height="19.79" fill="#ef4444"/>
<line x1="1018.58" y1="416.19" x2="1018.58" y2="486.81" stroke="#ef4444" stroke-width="1"/>
<rect x="1014.58" y="425.36" width="8.00" height="49.73" fill="#ef4444"/>
<line x1="1035.48" y1="468.12" x2="1035.48" y2="494.75" stroke="#ef4444" stroke-width="1"/>
<rect x="1031.48" y="468.24" width="8.00" height="6.48" fill="#ef4444"/>
<line x1="1052.39" y1="457.24" x2="1052.39" y2="479.12" stroke="#22c55e" stroke-width="1"/>
<rect x="1048.39" y="473.74" width="8.00" height="1.20" fill="#22c55e"/>
<line x1="1069.29" y1="424.38" x2="1069.29" y2="463.96" stroke="#22c55e" stroke-width="1"/>
<rect x="1065.29" y="441.85" width="8.00" height="22.11" fill="#22c55e"/>
<line x1="1086.19" y1="399.82" x2="1086.19" y2="446.13" stroke="#22c55e" stroke-width="1"/>
<rect x="1082.19" y="406.42" width="8.00" height="39.46" fill="#22c55e"/>
<line x1="1103.10" y1="402.14" x2="1103.10" y2="427.80" stroke="#22c55e" stroke-width="1"/>
<rect x="1099.10" y="405.93" width="8.00" height="3.67" fill="#22c55e"/>
<line x1="1120.00" y1="399.82" x2="1120.00" y2="425.36" stroke="#22c55e" stroke-width="1"/>
<rect x="1116.00" y="411.43" width="8.00" height="8.67" fill="#22c55e"/>
<polyline points="72.00,584.12 88.90,580.80 105.81,575.88 122.71,569.96 139.61,563.88 156.52,557.98 173.42,552.51 190.32,549.16 207.23,545.32 224.13,541.76 241.03,539.20 257.94,537.21 274.84,535.37 291.74,534.23 308.65,533.82 325.55,534.27 342.45,533.61 359.35,530.64 376.26,525.65 393.16,518.35 410.06,513.51 426.97,509.99 443.87,506.23 460.77,501.86 477.68,498.05 494.58,495.31 511.48,492.19 528.39,489.27 545.29,486.93 562.19,485.94 579.10,482.56 596.00,478.32 612.90,473.96 629.81,470.15 646.71,465.18 663.61,459.70 680.52,454.13 697.42,449.55 714.32,444.86 731.23,439.94 748.13,435.58 765.03,429.87 781.94,423.66 798.84,420.84 815.74,420.42 832.65,420.60 849.55,420.69 866.45,420.84 883.35,419.19 900.26,416.79 917.16,416.30 934.06,415.49 950.97,415.04 967.87,414.30 984.77,413.86 1001.68,415.16 1018.58,420.87 1035.48,426.00 1052.39,430.54 1069.29,431.62 1086.19,429.22 1103.10,427.00 1120.00,425.52" fill="none" stroke="#f59e0b" stroke-width="2"/>
<polyline points="72.00,594.93 88.90,593.14 105.81,590.63 122.71,587.61 139.61,584.42 156.52,581.18 173.42,578.02 190.32,575.64 207.23,573.02 224.13,570.47 241.03,568.28 257.94,566.32 274.84,564.43 291.74,562.82 308.65,561.53 325.55,560.63 342.45,559.32 359.35,557.09 376.26,554.00 393.16,549.88 410.06,546.65 426.97,543.90 443.87,541.03 460.77,537.86 477.68,534.88 494.58,532.31 511.48,529.57 528.39,526.90 545.29,524.46 562.19,522.59 579.10,519.75 596.00,516.55 612.90,513.26 629.81,510.15 646.71,506.53 663.61,502.65 680.52,498.67 697.42,495.04 714.32,491.33 731.23,487.48 748.13,483.82 765.03,479.58 781.94,475.07 798.84,471.89 815.74,469.72 832.65,467.86 849.55,466.05 866.45,464.32 883.35,461.94 900.26,459.28 917.16,457.41 934.06,455.46 950.97,453.71 967.87,451.89 984.77,450.23 1001.68,449.34 1018.58,450.35 1035.48,451.31 1052.39,452.19 1069.29,451.78 1086.19,450.00 1103.10,448.27 1120.00,446.83" fill="none" stroke="#38bdf8" stroke-width="2"/>
<line x1="72" y1="416.30" x2="1120" y2="416.30" stroke="#22d3ee" stroke-width="1.5"/>
<text x="78" y="411.30" fill="#22d3ee" font-family="sans-serif" font-size="11">Pullback entry 111.93</text>
<line x1="72" y1="458.71" x2="1120" y2="458.71" stroke="#94a3b8" stroke-width="1.5" stroke-dasharray="6 4"/>
<text x="78" y="453.71" fill="#94a3b8" font-family="sans-serif" font-size="11">Swing low 109.13</text>
<line x1="72" y1="489.60" x2="1120" y2="489.60" stroke="#fb7185" stroke-width="1.5"/>
<text x="78" y="484.60" fill="#fb7185" font-family="sans-serif" font-size="11">Stop 107.09</text>
<line x1="72" y1="267.17" x2="1120" y2="267.17" stroke="#4ade80" stroke-width="1.5"/>
<text x="78" y="262.17" fill="#4ade80" font-family="sans-serif" font-size="11">TP1 121.79</text>
<line x1="72" y1="118.89" x2="1120" y2="118.89" stroke="#c084fc" stroke-width="1.5"/>
<text x="78" y="113.89" fill="#c084fc" font-family="sans-serif" font-size="11">TP2 131.59</text>
<line x1="917.16" y1="92" x2="917.16" y2="594" stroke="#e2e8f0" stroke-width="1" stroke-dasharray="3 4"/>
<circle cx="917.16" cy="411.67" r="5" fill="#f8fafc"/>
<text x="924.16" y="107" fill="#e2e8f0" font-family="sans-serif" font-size="11">Signal</text>
<polygon points="934.06,405.46 926.06,421.46 942.06,421.46" fill="#22d3ee"/>
<text x="943.06" y="419.46" fill="#22d3ee" font-family="sans-serif" font-size="11">Entry</text>
<polygon points="1035.48,500.41 1027.48,484.41 1043.48,484.41" fill="#f8fafc"/>
<text x="1044.48" y="482.41" fill="#f8fafc" font-family="sans-serif" font-size="11">STOP</text>
<text x="72.00" y="622" text-anchor="middle" fill="#64748b" font-family="monospace" font-size="11">2018-07-24</text>
<text x="274.84" y="622" text-anchor="middle" fill="#64748b" font-family="monospace" font-size="11">2018-08-09</text>
<text x="494.58" y="622" text-anchor="middle" fill="#64748b" font-family="monospace" font-size="11">2018-08-28</text>
<text x="697.42" y="622" text-anchor="middle" fill="#64748b" font-family="monospace" font-size="11">2018-09-14</text>
<text x="917.16" y="622" text-anchor="middle" fill="#64748b" font-family="monospace" font-size="11">2018-10-03</text>
<text x="1120.00" y="622" text-anchor="middle" fill="#64748b" font-family="monospace" font-size="11">2018-10-19</text>
<line x1="72" y1="632" x2="96" y2="632" stroke="#f59e0b" stroke-width="2"/><text x="102" y="636" fill="#94a3b8" font-family="sans-serif" font-size="11">EMA20</text>
<line x1="176" y1="632" x2="200" y2="632" stroke="#38bdf8" stroke-width="2"/><text x="206" y="636" fill="#94a3b8" font-family="sans-serif" font-size="11">EMA50</text>
<text x="1120" y="654" text-anchor="end" fill="#475569" font-family="sans-serif" font-size="11">Retrospective holdout · Out-of-sample · Not forward validation</text>
</svg>