<svg xmlns="http://www.w3.org/2000/svg" width="1200" height="680" viewBox="0 0 1200 680" role="img" data-entry="152.98247726" data-stop="148.18955934" data-target-1="162.56831309" data-target-2="172.15414892" data-swing-low="151.00385870" data-signal-timestamp="2020-01-14T00:00:00">
<title>ITW LOSER trade evidence</title>
<desc>Daily candles with frozen swing strategy levels for signal 2020-01-14.</desc>
<rect width="1200" height="680" fill="#020617"/>
<text x="72" y="34" fill="#f8fafc" font-family="sans-serif" font-size="22" font-weight="600">ITW · Illinois Tool Works Inc. · LOSER</text>
<text x="72" y="62" fill="#94a3b8" font-family="sans-serif" font-size="14">Signal 2020-01-14T00:00:00 · Regime Bull · Engine score 90.0 · BUY</text>
<line x1="72" y1="594.00" x2="1120" y2="594.00" stroke="#1e293b" stroke-width="1"/>
<text x="1130" y="598.00" fill="#64748b" font-family="monospace" font-size="11">139.59</text>
<line x1="72" y1="493.60" x2="1120" y2="493.60" stroke="#1e293b" stroke-width="1"/>
<text x="1130" y="497.60" fill="#64748b" font-family="monospace" font-size="11">146.48</text>
<line x1="72" y1="393.20" x2="1120" y2="393.20" stroke="#1e293b" stroke-width="1"/>
<text x="1130" y="397.20" fill="#64748b" font-family="monospace" font-size="11">153.36</text>
<line x1="72" y1="292.80" x2="1120" y2="292.80" stroke="#1e293b" stroke-width="1"/>
<text x="1130" y="296.80" fill="#64748b" font-family="monospace" font-size="11">160.24</text>
<line x1="72" y1="192.40" x2="1120" y2="192.40" stroke="#1e293b" stroke-width="1"/>
<text x="1130" y="196.40" fill="#64748b" font-family="monospace" font-size="11">167.12</text>
<line x1="72" y1="92.00" x2="1120" y2="92.00" stroke="#1e293b" stroke-width="1"/>
<text x="1130" y="96.00" fill="#64748b" font-family="monospace" font-size="11">174.00</text>
<line x1="72.00" y1="527.05" x2="72.00" y2="567.11" stroke="#ef4444" stroke-width="1"/>
<rect x="68.00" y="530.28" width="8.00" height="3.36" fill="#ef4444"/>
<line x1="88.63" y1="481.26" x2="88.63" y2="521.95" stroke="#22c55e" stroke-width="1"/>
<rect x="84.63" y="481.26" width="8.00" height="23.26" fill="#22c55e"/>
<line x1="105.27" y1="446.80" x2="105.27" y2="473.92" stroke="#22c55e" stroke-width="1"/>
<rect x="101.27" y="447.55" width="8.00" height="22.64" fill="#22c55e"/>
<line x1="121.90" y1="426.02" x2="121.90" y2="457.00" stroke="#22c55e" stroke-width="1"/>
<rect x="117.90" y="439.09" width="8.00" height="5.47" fill="#22c55e"/>
<line x1="138.54" y1="421.17" x2="138.54" y2="459.86" stroke="#22c55e" stroke-width="1"/>
<rect x="134.54" y="422.04" width="8.00" height="22.64" fill="#22c55e"/>
<line x1="155.17" y1="400.40" x2="155.17" y2="438.22" stroke="#ef4444" stroke-width="1"/>
<rect x="151.17" y="414.95" width="8.00" height="20.03" fill="#ef4444"/>
<line x1="171.81" y1="433.24" x2="171.81" y2="453.64" stroke="#22c55e" stroke-width="1"/>
<rect x="167.81" y="436.23" width="8.00" height="4.73" fill="#22c55e"/>
<line x1="188.44" y1="430.25" x2="188.44" y2="455.26" stroke="#ef4444" stroke-width="1"/>
<rect x="184.44" y="447.80" width="8.00" height="2.99" fill="#ef4444"/>
<line x1="205.08" y1="434.24" x2="205.08" y2="462.10" stroke="#ef4444" stroke-width="1"/>
<rect x="201.08" y="443.82" width="8.00" height="12.81" fill="#ef4444"/>
<line x1="221.71" y1="464.84" x2="221.71" y2="488.23" stroke="#ef4444" stroke-width="1"/>
<rect x="217.71" y="471.19" width="8.00" height="2.74" fill="#ef4444"/>
<line x1="238.35" y1="457.50" x2="238.35" y2="482.13" stroke="#22c55e" stroke-width="1"/>
<rect x="234.35" y="470.44" width="8.00" height="8.96" fill="#22c55e"/>
<line x1="254.98" y1="448.05" x2="254.98" y2="464.22" stroke="#22c55e" stroke-width="1"/>
<rect x="250.98" y="451.78" width="8.00" height="1.62" fill="#22c55e"/>
<line x1="271.62" y1="442.57" x2="271.62" y2="472.55" stroke="#22c55e" stroke-width="1"/>
<rect x="267.62" y="443.32" width="8.00" height="22.89" fill="#22c55e"/>
<line x1="288.25" y1="433.24" x2="288.25" y2="467.58" stroke="#ef4444" stroke-width="1"/>
<rect x="284.25" y="434.48" width="8.00" height="26.00" fill="#ef4444"/>
<line x1="304.89" y1="465.09" x2="304.89" y2="502.41" stroke="#ef4444" stroke-width="1"/>
<rect x="300.89" y="474.42" width="8.00" height="11.20" fill="#ef4444"/>
<line x1="321.52" y1="475.79" x2="321.52" y2="494.95" stroke="#22c55e" stroke-width="1"/>
<rect x="317.52" y="483.38" width="8.00" height="2.49" fill="#22c55e"/>
<line x1="338.16" y1="465.09" x2="338.16" y2="484.87" stroke="#22c55e" stroke-width="1"/>
<rect x="334.16" y="471.68" width="8.00" height="1.20" fill="#22c55e"/>
<line x1="354.79" y1="446.80" x2="354.79" y2="468.32" stroke="#22c55e" stroke-width="1"/>
<rect x="350.79" y="451.53" width="8.00" height="9.08" fill="#22c55e"/>
<line x1="371.43" y1="446.68" x2="371.43" y2="460.61" stroke="#22c55e" stroke-width="1"/>
<rect x="367.43" y="449.16" width="8.00" height="5.85" fill="#22c55e"/>
<line x1="388.06" y1="448.05" x2="388.06" y2="466.46" stroke="#ef4444" stroke-width="1"/>
<rect x="384.06" y="449.17" width="8.00" height="3.23" fill="#ef4444"/>
<line x1="404.70" y1="445.93" x2="404.70" y2="472.18" stroke="#ef4444" stroke-width="1"/>
<rect x="400.70" y="448.54" width="8.00" height="13.56" fill="#ef4444"/>
<line x1="421.33" y1="453.77" x2="421.33" y2="492.34" stroke="#ef4444" stroke-width="1"/>
<rect x="417.33" y="457.87" width="8.00" height="32.22" fill="#ef4444"/>
<line x1="437.97" y1="502.16" x2="437.97" y2="527.42" stroke="#22c55e" stroke-width="1"/>
<rect x="433.97" y="507.14" width="8.00" height="4.48" fill="#22c55e"/>
<line x1="454.60" y1="461.61" x2="454.60" y2="501.04" stroke="#ef4444" stroke-width="1"/>
<rect x="450.60" y="491.71" width="8.00" height="3.86" fill="#ef4444"/>
<line x1="471.24" y1="477.03" x2="471.24" y2="503.41" stroke="#22c55e" stroke-width="1"/>
<rect x="467.24" y="481.76" width="8.00" height="10.33" fill="#22c55e"/>
<line x1="487.87" y1="446.93" x2="487.87" y2="465.09" stroke="#ef4444" stroke-width="1"/>
<rect x="483.87" y="460.11" width="8.00" height="3.73" fill="#ef4444"/>
<line x1="504.51" y1="455.39" x2="504.51" y2="469.94" stroke="#22c55e" stroke-width="1"/>
<rect x="500.51" y="460.86" width="8.00" height="6.72" fill="#22c55e"/>
<line x1="521.14" y1="445.06" x2="521.14" y2="473.80" stroke="#22c55e" stroke-width="1"/>
<rect x="517.14" y="460.61" width="8.00" height="1.20" fill="#22c55e"/>
<line x1="537.78" y1="428.89" x2="537.78" y2="460.11" stroke="#22c55e" stroke-width="1"/>
<rect x="533.78" y="430.50" width="8.00" height="21.77" fill="#22c55e"/>
<line x1="554.41" y1="394.30" x2="554.41" y2="438.47" stroke="#22c55e" stroke-width="1"/>
<rect x="550.41" y="402.76" width="8.00" height="28.61" fill="#22c55e"/>
<line x1="571.05" y1="386.34" x2="571.05" y2="431.62" stroke="#ef4444" stroke-width="1"/>
<rect x="567.05" y="402.01" width="8.00" height="23.51" fill="#ef4444"/>
<line x1="587.68" y1="405.25" x2="587.68" y2="426.27" stroke="#ef4444" stroke-width="1"/>
<rect x="583.68" y="411.22" width="8.00" height="11.82" fill="#ef4444"/>
<line x1="604.32" y1="400.89" x2="604.32" y2="427.52" stroke="#22c55e" stroke-width="1"/>
<rect x="600.32" y="418.93" width="8.00" height="3.86" fill="#22c55e"/>
<line x1="620.95" y1="401.64" x2="620.95" y2="427.52" stroke="#22c55e" stroke-width="1"/>
<rect x="616.95" y="405.37" width="8.00" height="10.82" fill="#22c55e"/>
<line x1="637.59" y1="402.39" x2="637.59" y2="418.31" stroke="#ef4444" stroke-width="1"/>
<rect x="633.59" y="407.98" width="8.00" height="2.74" fill="#ef4444"/>
<line x1="654.22" y1="385.47" x2="654.22" y2="408.86" stroke="#ef4444" stroke-width="1"/>
<rect x="650.22" y="386.84" width="8.00" height="1.20" fill="#ef4444"/>
<line x1="670.86" y1="378.13" x2="670.86" y2="393.30" stroke="#22c55e" stroke-width="1"/>
<rect x="666.86" y="378.25" width="8.00" height="8.21" fill="#22c55e"/>
<line x1="687.49" y1="377.13" x2="687.49" y2="395.29" stroke="#ef4444" stroke-width="1"/>
<rect x="683.49" y="377.88" width="8.00" height="11.45" fill="#ef4444"/>
<line x1="704.13" y1="375.64" x2="704.13" y2="392.68" stroke="#22c55e" stroke-width="1"/>
<rect x="700.13" y="375.64" width="8.00" height="7.34" fill="#22c55e"/>
<line x1="720.76" y1="362.45" x2="720.76" y2="383.60" stroke="#ef4444" stroke-width="1"/>
<rect x="716.76" y="368.05" width="8.00" height="9.46" fill="#ef4444"/>
<line x1="737.40" y1="369.37" x2="737.40" y2="386.26" stroke="#ef4444" stroke-width="1"/>
<rect x="733.40" y="375.00" width="8.00" height="4.38" fill="#ef4444"/>
<line x1="754.03" y1="377.00" x2="754.03" y2="391.90" stroke="#22c55e" stroke-width="1"/>
<rect x="750.03" y="382.89" width="8.00" height="2.88" fill="#22c55e"/>
<line x1="770.67" y1="356.98" x2="770.67" y2="391.02" stroke="#22c55e" stroke-width="1"/>
<rect x="766.67" y="357.23" width="8.00" height="19.15" fill="#22c55e"/>
<line x1="787.30" y1="377.38" x2="787.30" y2="409.42" stroke="#22c55e" stroke-width="1"/>
<rect x="783.30" y="389.39" width="8.00" height="5.01" fill="#22c55e"/>
<line x1="803.94" y1="395.90" x2="803.94" y2="418.30" stroke="#22c55e" stroke-width="1"/>
<rect x="799.94" y="396.53" width="8.00" height="6.26" fill="#22c55e"/>
<line x1="820.57" y1="398.40" x2="820.57" y2="425.94" stroke="#22c55e" stroke-width="1"/>
<rect x="816.57" y="405.66" width="8.00" height="1.88" fill="#22c55e"/>
<line x1="837.21" y1="385.01" x2="837.21" y2="410.79" stroke="#22c55e" stroke-width="1"/>
<rect x="833.21" y="394.02" width="8.00" height="6.01" fill="#22c55e"/>
<line x1="853.84" y1="380.76" x2="853.84" y2="401.91" stroke="#22c55e" stroke-width="1"/>
<rect x="849.84" y="382.89" width="8.00" height="2.25" fill="#22c55e"/>
<line x1="870.48" y1="370.00" x2="870.48" y2="403.16" stroke="#ef4444" stroke-width="1"/>
<rect x="866.48" y="384.39" width="8.00" height="15.89" fill="#ef4444"/>
<line x1="887.11" y1="379.88" x2="887.11" y2="400.78" stroke="#22c55e" stroke-width="1"/>
<rect x="883.11" y="380.51" width="8.00" height="15.39" fill="#22c55e"/>
<line x1="903.75" y1="374.12" x2="903.75" y2="400.66" stroke="#ef4444" stroke-width="1"/>
<rect x="899.75" y="382.01" width="8.00" height="13.27" fill="#ef4444"/>
<line x1="920.38" y1="387.14" x2="920.38" y2="415.55" stroke="#22c55e" stroke-width="1"/>
<rect x="916.38" y="398.15" width="8.00" height="1.20" fill="#22c55e"/>
<line x1="937.02" y1="378.26" x2="937.02" y2="398.78" stroke="#22c55e" stroke-width="1"/>
<rect x="933.02" y="380.88" width="8.00" height="3.25" fill="#22c55e"/>
<line x1="953.65" y1="369.24" x2="953.65" y2="389.14" stroke="#22c55e" stroke-width="1"/>
<rect x="949.65" y="372.87" width="8.00" height="3.63" fill="#22c55e"/>
<line x1="970.29" y1="381.76" x2="970.29" y2="410.54" stroke="#ef4444" stroke-width="1"/>
<rect x="966.29" y="388.02" width="8.00" height="16.77" fill="#ef4444"/>
<line x1="986.92" y1="385.39" x2="986.92" y2="416.05" stroke="#ef4444" stroke-width="1"/>
<rect x="982.92" y="389.64" width="8.00" height="19.77" fill="#ef4444"/>
<line x1="1003.56" y1="381.01" x2="1003.56" y2="440.20" stroke="#22c55e" stroke-width="1"/>
<rect x="999.56" y="383.26" width="8.00" height="40.42" fill="#22c55e"/>
<line x1="1020.19" y1="378.26" x2="1020.19" y2="437.58" stroke="#ef4444" stroke-width="1"/>
<rect x="1016.19" y="378.26" width="8.00" height="46.31" fill="#ef4444"/>
<line x1="1036.83" y1="444.08" x2="1036.83" y2="498.65" stroke="#22c55e" stroke-width="1"/>
<rect x="1032.83" y="461.23" width="8.00" height="4.38" fill="#22c55e"/>
<line x1="1053.46" y1="418.68" x2="1053.46" y2="466.86" stroke="#22c55e" stroke-width="1"/>
<rect x="1049.46" y="430.07" width="8.00" height="20.52" fill="#22c55e"/>
<line x1="1070.10" y1="403.54" x2="1070.10" y2="437.08" stroke="#ef4444" stroke-width="1"/>
<rect x="1066.10" y="418.05" width="8.00" height="12.64" fill="#ef4444"/>
<line x1="1086.73" y1="403.41" x2="1086.73" y2="454.35" stroke="#22c55e" stroke-width="1"/>
<rect x="1082.73" y="404.54" width="8.00" height="49.18" fill="#22c55e"/>
<line x1="1103.37" y1="384.89" x2="1103.37" y2="442.08" stroke="#ef4444" stroke-width="1"/>
<rect x="1099.37" y="404.54" width="8.00" height="36.54" fill="#ef4444"/>
<line x1="1120.00" y1="376.38" x2="1120.00" y2="446.09" stroke="#22c55e" stroke-width="1"/>
<rect x="1116.00" y="422.56" width="8.00" height="11.01" fill="#22c55e"/>
<polyline points="72.00,620.13 88.63,606.91 105.27,591.73 121.90,577.19 138.54,562.42 155.17,550.28 171.81,539.42 188.44,530.98 205.08,523.90 221.71,519.14 238.35,514.50 254.98,508.53 271.62,502.32 288.25,498.33 304.89,497.12 321.52,495.81 338.16,493.51 354.79,489.52 371.43,485.67 388.06,482.50 404.70,480.56 421.33,481.47 437.97,483.91 454.60,485.02 471.24,484.71 487.87,482.73 504.51,480.64 521.14,478.74 537.78,474.14 554.41,467.34 571.05,463.36 587.68,459.52 604.32,455.66 620.95,450.87 637.59,447.04 654.22,441.39 670.86,435.38 687.49,430.99 704.13,425.72 720.76,421.13 737.40,417.15 754.03,413.89 770.67,408.49 787.30,406.67 803.94,405.71 820.57,405.70 837.21,404.59 853.84,402.52 870.48,402.31 887.11,400.23 903.75,399.76 920.38,399.61 937.02,397.83 953.65,395.45 970.29,396.34 986.92,397.58 1003.56,396.22 1020.19,398.92 1036.83,404.85 1053.46,407.25 1070.10,409.49 1086.73,409.02 1103.37,412.07 1120.00,413.07" fill="none" stroke="#f59e0b" stroke-width="2"/>
<polyline points="72.00,683.51 88.63,675.58 105.27,666.64 121.90,657.71 138.54,648.47 155.17,640.10 171.81,632.11 188.44,624.99 205.08,618.39 221.71,612.73 238.35,607.15 254.98,601.05 271.62,594.87 288.25,589.60 304.89,585.52 321.52,581.51 338.16,577.21 354.79,572.28 371.43,567.45 388.06,562.94 404.70,558.99 421.33,556.28 437.97,554.36 454.60,552.05 471.24,549.29 487.87,545.94 504.51,542.61 521.14,539.39 537.78,535.12 554.41,529.93 571.05,525.84 587.68,521.81 604.32,517.77 620.95,513.36 637.59,509.34 654.22,504.57 670.86,499.61 687.49,495.29 704.13,490.60 720.76,486.16 737.40,481.97 754.03,478.09 770.67,473.35 787.30,470.06 803.94,467.17 820.57,464.76 837.21,461.99 853.84,458.89 870.48,456.59 887.11,453.60 903.75,451.32 920.38,449.23 937.02,446.55 953.65,443.66 970.29,442.14 986.92,440.85 1003.56,438.60 1020.19,438.05 1036.83,438.95 1053.46,438.61 1070.10,438.30 1086.73,436.97 1103.37,437.13 1120.00,436.56" fill="none" stroke="#38bdf8" stroke-width="2"/>
<line x1="72" y1="399.76" x2="1120" y2="399.76" stroke="#22d3ee" stroke-width="1.5"/>
<text x="78" y="394.76" fill="#22d3ee" font-family="sans-serif" font-size="11">Pullback entry 152.91</text>
<line x1="72" y1="427.52" x2="1120" y2="427.52" stroke="#94a3b8" stroke-width="1.5" stroke-dasharray="6 4"/>
<text x="78" y="422.52" fill="#94a3b8" font-family="sans-serif" font-size="11">Swing low 151.00</text>
<line x1="72" y1="468.58" x2="1120" y2="468.58" stroke="#fb7185" stroke-width="1.5"/>
<text x="78" y="463.58" fill="#fb7185" font-family="sans-serif" font-size="11">Stop 148.19</text>
<line x1="72" y1="258.77" x2="1120" y2="258.77" stroke="#4ade80" stroke-width="1.5"/>
<text x="78" y="253.77" fill="#4ade80" font-family="sans-serif" font-size="11">TP1 162.57</text>
<line x1="72" y1="118.89" x2="1120" y2="118.89" stroke="#c084fc" stroke-width="1.5"/>
<text x="78" y="113.89" fill="#c084fc" font-family="sans-serif" font-size="11">TP2 172.15</text>
<line x1="903.75" y1="92" x2="903.75" y2="594" stroke="#e2e8f0" stroke-width="1" stroke-dasharray="3 4"/>
<circle cx="903.75" cy="395.28" r="5" fill="#f8fafc"/>
<text x="910.75" y="107" fill="#e2e8f0" font-family="sans-serif" font-size="11">Signal</text>
<polygon points="920.38,388.65 912.38,404.65 928.38,404.65" fill="#22d3ee"/>
<text x="929.38" y="402.65" fill="#22d3ee" font-family="sans-serif" font-size="11">Entry</text>
<polygon points="1036.83,479.67 1028.83,463.67 1044.83,463.67" fill="#f8fafc"/>
<text x="1045.83" y="461.67" fill="#f8fafc" font-family="sans-serif" font-size="11">STOP</text>
<text x="72.00" y="622" text-anchor="middle" fill="#64748b" font-family="monospace" font-size="11">2019-10-31</text>
<text x="288.25" y="622" text-anchor="middle" fill="#64748b" font-family="monospace" font-size="11">2019-11-19</text>
<text x="487.87" y="622" text-anchor="middle" fill="#64748b" font-family="monospace" font-size="11">2019-12-06</text>
<text x="704.13" y="622" text-anchor="middle" fill="#64748b" font-family="monospace" font-size="11">2019-12-26</text>
<text x="903.75" y="622" text-anchor="middle" fill="#64748b" font-family="monospace" font-size="11">2020-01-14</text>
<text x="1120.00" y="622" text-anchor="middle" fill="#64748b" font-family="monospace" font-size="11">2020-02-03</text>
<line x1="72" y1="632" x2="96" y2="632" stroke="#f59e0b" stroke-width="2"/><text x="102" y="636" fill="#94a3b8" font-family="sans-serif" font-size="11">EMA20</text>
<line x1="176" y1="632" x2="200" y2="632" stroke="#38bdf8" stroke-width="2"/><text x="206" y="636" fill="#94a3b8" font-family="sans-serif" font-size="11">EMA50</text>
<text x="1120" y="654" text-anchor="end" fill="#475569" font-family="sans-serif" font-size="11">Retrospective holdout · Out-of-sample · Not forward validation</text>
</svg>