<svg xmlns="http://www.w3.org/2000/svg" width="1200" height="680" viewBox="0 0 1200 680" role="img" data-entry="84.08602736" data-stop="78.93691157" data-target-1="94.38425895" data-target-2="104.68249054" data-swing-low="81.63330458" data-signal-timestamp="2021-01-06T00:00:00">
<title>ABBV EXPIRED trade evidence</title>
<desc>Daily candles with frozen swing strategy levels for signal 2021-01-06.</desc>
<rect width="1200" height="680" fill="#020617"/>
<text x="72" y="34" fill="#f8fafc" font-family="sans-serif" font-size="22" font-weight="600">ABBV · AbbVie Inc. · EXPIRED</text>
<text x="72" y="62" fill="#94a3b8" font-family="sans-serif" font-size="14">Signal 2021-01-06T00:00:00 · Regime Bull · Engine score 90.0 · BUY</text>
<line x1="72" y1="594.00" x2="1120" y2="594.00" stroke="#1e293b" stroke-width="1"/>
<text x="1130" y="598.00" fill="#64748b" font-family="monospace" font-size="11">61.13</text>
<line x1="72" y1="493.60" x2="1120" y2="493.60" stroke="#1e293b" stroke-width="1"/>
<text x="1130" y="497.60" fill="#64748b" font-family="monospace" font-size="11">70.33</text>
<line x1="72" y1="393.20" x2="1120" y2="393.20" stroke="#1e293b" stroke-width="1"/>
<text x="1130" y="397.20" fill="#64748b" font-family="monospace" font-size="11">79.54</text>
<line x1="72" y1="292.80" x2="1120" y2="292.80" stroke="#1e293b" stroke-width="1"/>
<text x="1130" y="296.80" fill="#64748b" font-family="monospace" font-size="11">88.74</text>
<line x1="72" y1="192.40" x2="1120" y2="192.40" stroke="#1e293b" stroke-width="1"/>
<text x="1130" y="196.40" fill="#64748b" font-family="monospace" font-size="11">97.94</text>
<line x1="72" y1="92.00" x2="1120" y2="92.00" stroke="#1e293b" stroke-width="1"/>
<text x="1130" y="96.00" fill="#64748b" font-family="monospace" font-size="11">107.15</text>
<line x1="72.00" y1="514.14" x2="72.00" y2="524.75" stroke="#ef4444" stroke-width="1"/>
<rect x="68.13" y="518.61" width="7.74" height="2.63" fill="#ef4444"/>
<line x1="84.63" y1="521.42" x2="84.63" y2="534.66" stroke="#ef4444" stroke-width="1"/>
<rect x="80.76" y="523.44" width="7.74" height="1.49" fill="#ef4444"/>
<line x1="97.25" y1="521.95" x2="97.25" y2="535.80" stroke="#ef4444" stroke-width="1"/>
<rect x="93.39" y="524.23" width="7.74" height="11.31" fill="#ef4444"/>
<line x1="109.88" y1="539.92" x2="109.88" y2="557.20" stroke="#ef4444" stroke-width="1"/>
<rect x="106.01" y="547.46" width="7.74" height="7.54" fill="#ef4444"/>
<line x1="122.51" y1="547.29" x2="122.51" y2="567.11" stroke="#22c55e" stroke-width="1"/>
<rect x="118.64" y="553.43" width="7.74" height="1.49" fill="#22c55e"/>
<line x1="135.13" y1="505.46" x2="135.13" y2="533.00" stroke="#22c55e" stroke-width="1"/>
<rect x="131.26" y="514.58" width="7.74" height="16.66" fill="#22c55e"/>
<line x1="147.76" y1="484.41" x2="147.76" y2="506.69" stroke="#22c55e" stroke-width="1"/>
<rect x="143.89" y="486.96" width="7.74" height="19.47" fill="#22c55e"/>
<line x1="160.39" y1="476.96" x2="160.39" y2="494.15" stroke="#ef4444" stroke-width="1"/>
<rect x="156.52" y="479.15" width="7.74" height="10.35" fill="#ef4444"/>
<line x1="173.01" y1="405.93" x2="173.01" y2="448.20" stroke="#22c55e" stroke-width="1"/>
<rect x="169.14" y="432.15" width="7.74" height="11.93" fill="#22c55e"/>
<line x1="185.64" y1="423.21" x2="185.64" y2="445.30" stroke="#ef4444" stroke-width="1"/>
<rect x="181.77" y="424.61" width="7.74" height="14.64" fill="#ef4444"/>
<line x1="198.27" y1="439.60" x2="198.27" y2="456.62" stroke="#ef4444" stroke-width="1"/>
<rect x="194.40" y="445.48" width="7.74" height="1.20" fill="#ef4444"/>
<line x1="210.89" y1="410.67" x2="210.89" y2="430.66" stroke="#ef4444" stroke-width="1"/>
<rect x="207.02" y="421.28" width="7.74" height="5.44" fill="#ef4444"/>
<line x1="223.52" y1="391.55" x2="223.52" y2="422.24" stroke="#22c55e" stroke-width="1"/>
<rect x="219.65" y="393.83" width="7.74" height="25.08" fill="#22c55e"/>
<line x1="236.14" y1="385.06" x2="236.14" y2="403.48" stroke="#ef4444" stroke-width="1"/>
<rect x="232.28" y="391.37" width="7.74" height="8.77" fill="#ef4444"/>
<line x1="248.77" y1="403.65" x2="248.77" y2="416.54" stroke="#22c55e" stroke-width="1"/>
<rect x="244.90" y="404.97" width="7.74" height="1.20" fill="#22c55e"/>
<line x1="261.40" y1="387.87" x2="261.40" y2="406.72" stroke="#22c55e" stroke-width="1"/>
<rect x="257.53" y="392.34" width="7.74" height="14.29" fill="#22c55e"/>
<line x1="274.02" y1="379.18" x2="274.02" y2="398.56" stroke="#ef4444" stroke-width="1"/>
<rect x="270.16" y="384.27" width="7.74" height="14.03" fill="#ef4444"/>
<line x1="286.65" y1="381.64" x2="286.65" y2="394.97" stroke="#ef4444" stroke-width="1"/>
<rect x="282.78" y="389.44" width="7.74" height="1.40" fill="#ef4444"/>
<line x1="299.28" y1="381.38" x2="299.28" y2="395.49" stroke="#ef4444" stroke-width="1"/>
<rect x="295.41" y="383.92" width="7.74" height="11.22" fill="#ef4444"/>
<line x1="311.90" y1="382.60" x2="311.90" y2="396.28" stroke="#22c55e" stroke-width="1"/>
<rect x="308.04" y="386.81" width="7.74" height="7.98" fill="#22c55e"/>
<line x1="324.53" y1="367.87" x2="324.53" y2="396.02" stroke="#22c55e" stroke-width="1"/>
<rect x="320.66" y="376.55" width="7.74" height="7.80" fill="#22c55e"/>
<line x1="337.16" y1="359.72" x2="337.16" y2="374.54" stroke="#22c55e" stroke-width="1"/>
<rect x="333.29" y="364.80" width="7.74" height="2.10" fill="#22c55e"/>
<line x1="349.78" y1="341.65" x2="349.78" y2="361.30" stroke="#22c55e" stroke-width="1"/>
<rect x="345.92" y="349.19" width="7.74" height="9.47" fill="#22c55e"/>
<line x1="362.41" y1="344.81" x2="362.41" y2="354.19" stroke="#22c55e" stroke-width="1"/>
<rect x="358.54" y="347.09" width="7.74" height="3.33" fill="#22c55e"/>
<line x1="375.04" y1="333.06" x2="375.04" y2="346.21" stroke="#ef4444" stroke-width="1"/>
<rect x="371.17" y="340.25" width="7.74" height="1.20" fill="#ef4444"/>
<line x1="387.66" y1="336.39" x2="387.66" y2="351.91" stroke="#ef4444" stroke-width="1"/>
<rect x="383.80" y="339.02" width="7.74" height="4.74" fill="#ef4444"/>
<line x1="400.29" y1="327.97" x2="400.29" y2="348.49" stroke="#ef4444" stroke-width="1"/>
<rect x="396.42" y="339.64" width="7.74" height="8.86" fill="#ef4444"/>
<line x1="412.92" y1="336.74" x2="412.92" y2="354.81" stroke="#22c55e" stroke-width="1"/>
<rect x="409.05" y="340.16" width="7.74" height="8.68" fill="#22c55e"/>
<line x1="425.54" y1="333.94" x2="425.54" y2="346.21" stroke="#ef4444" stroke-width="1"/>
<rect x="421.67" y="340.07" width="7.74" height="2.28" fill="#ef4444"/>
<line x1="438.17" y1="319.82" x2="438.17" y2="339.90" stroke="#22c55e" stroke-width="1"/>
<rect x="434.30" y="320.08" width="7.74" height="19.82" fill="#22c55e"/>
<line x1="450.80" y1="320.69" x2="450.80" y2="340.42" stroke="#ef4444" stroke-width="1"/>
<rect x="446.93" y="322.19" width="7.74" height="10.52" fill="#ef4444"/>
<line x1="463.42" y1="310.70" x2="463.42" y2="334.81" stroke="#22c55e" stroke-width="1"/>
<rect x="459.55" y="316.48" width="7.74" height="17.45" fill="#22c55e"/>
<line x1="476.05" y1="303.68" x2="476.05" y2="317.01" stroke="#22c55e" stroke-width="1"/>
<rect x="472.18" y="307.89" width="7.74" height="6.75" fill="#22c55e"/>
<line x1="488.67" y1="304.38" x2="488.67" y2="325.43" stroke="#ef4444" stroke-width="1"/>
<rect x="484.81" y="304.47" width="7.74" height="13.77" fill="#ef4444"/>
<line x1="501.30" y1="318.85" x2="501.30" y2="334.99" stroke="#ef4444" stroke-width="1"/>
<rect x="497.43" y="322.45" width="7.74" height="5.88" fill="#ef4444"/>
<line x1="513.93" y1="313.15" x2="513.93" y2="348.05" stroke="#ef4444" stroke-width="1"/>
<rect x="510.06" y="318.77" width="7.74" height="28.32" fill="#ef4444"/>
<line x1="526.55" y1="336.13" x2="526.55" y2="363.58" stroke="#ef4444" stroke-width="1"/>
<rect x="522.69" y="336.22" width="7.74" height="22.98" fill="#ef4444"/>
<line x1="539.18" y1="336.48" x2="539.18" y2="367.26" stroke="#22c55e" stroke-width="1"/>
<rect x="535.31" y="343.23" width="7.74" height="18.77" fill="#22c55e"/>
<line x1="551.81" y1="335.69" x2="551.81" y2="347.88" stroke="#22c55e" stroke-width="1"/>
<rect x="547.94" y="341.04" width="7.74" height="1.20" fill="#22c55e"/>
<line x1="564.43" y1="339.55" x2="564.43" y2="355.86" stroke="#ef4444" stroke-width="1"/>
<rect x="560.57" y="339.81" width="7.74" height="5.09" fill="#ef4444"/>
<line x1="577.06" y1="349.54" x2="577.06" y2="370.33" stroke="#22c55e" stroke-width="1"/>
<rect x="573.19" y="351.39" width="7.74" height="8.33" fill="#22c55e"/>
<line x1="589.69" y1="353.23" x2="589.69" y2="366.29" stroke="#ef4444" stroke-width="1"/>
<rect x="585.82" y="354.02" width="7.74" height="5.35" fill="#ef4444"/>
<line x1="602.31" y1="349.46" x2="602.31" y2="358.40" stroke="#22c55e" stroke-width="1"/>
<rect x="598.45" y="355.16" width="7.74" height="1.93" fill="#22c55e"/>
<line x1="614.94" y1="354.19" x2="614.94" y2="361.12" stroke="#22c55e" stroke-width="1"/>
<rect x="611.07" y="355.33" width="7.74" height="1.32" fill="#22c55e"/>
<line x1="627.57" y1="349.90" x2="627.57" y2="360.07" stroke="#ef4444" stroke-width="1"/>
<rect x="623.70" y="351.91" width="7.74" height="1.75" fill="#ef4444"/>
<line x1="640.19" y1="336.83" x2="640.19" y2="349.28" stroke="#22c55e" stroke-width="1"/>
<rect x="636.33" y="342.70" width="7.74" height="6.58" fill="#22c55e"/>
<line x1="652.82" y1="329.29" x2="652.82" y2="339.20" stroke="#22c55e" stroke-width="1"/>
<rect x="648.95" y="337.71" width="7.74" height="1.40" fill="#22c55e"/>
<line x1="665.45" y1="320.08" x2="665.45" y2="341.39" stroke="#22c55e" stroke-width="1"/>
<rect x="661.58" y="321.22" width="7.74" height="16.57" fill="#22c55e"/>
<line x1="678.07" y1="319.47" x2="678.07" y2="350.07" stroke="#ef4444" stroke-width="1"/>
<rect x="674.20" y="320.96" width="7.74" height="15.52" fill="#ef4444"/>
<line x1="690.70" y1="322.36" x2="690.70" y2="343.32" stroke="#22c55e" stroke-width="1"/>
<rect x="686.83" y="326.92" width="7.74" height="9.56" fill="#22c55e"/>
<line x1="703.33" y1="320.87" x2="703.33" y2="347.26" stroke="#22c55e" stroke-width="1"/>
<rect x="699.46" y="334.99" width="7.74" height="7.28" fill="#22c55e"/>
<line x1="715.95" y1="322.01" x2="715.95" y2="335.08" stroke="#22c55e" stroke-width="1"/>
<rect x="712.08" y="325.08" width="7.74" height="5.26" fill="#22c55e"/>
<line x1="728.58" y1="317.89" x2="728.58" y2="333.41" stroke="#22c55e" stroke-width="1"/>
<rect x="724.71" y="320.17" width="7.74" height="3.77" fill="#22c55e"/>
<line x1="741.20" y1="300.09" x2="741.20" y2="321.92" stroke="#22c55e" stroke-width="1"/>
<rect x="737.34" y="304.82" width="7.74" height="17.10" fill="#22c55e"/>
<line x1="753.83" y1="289.39" x2="753.83" y2="303.95" stroke="#22c55e" stroke-width="1"/>
<rect x="749.96" y="298.16" width="7.74" height="4.91" fill="#22c55e"/>
<line x1="766.46" y1="266.33" x2="766.46" y2="298.86" stroke="#22c55e" stroke-width="1"/>
<rect x="762.59" y="274.74" width="7.74" height="23.24" fill="#22c55e"/>
<line x1="779.08" y1="261.08" x2="779.08" y2="289.38" stroke="#22c55e" stroke-width="1"/>
<rect x="775.22" y="270.49" width="7.74" height="8.25" fill="#22c55e"/>
<line x1="791.71" y1="271.11" x2="791.71" y2="289.56" stroke="#ef4444" stroke-width="1"/>
<rect x="787.84" y="274.30" width="7.74" height="6.03" fill="#ef4444"/>
<line x1="804.34" y1="264.45" x2="804.34" y2="282.64" stroke="#22c55e" stroke-width="1"/>
<rect x="800.47" y="265.61" width="7.74" height="8.25" fill="#22c55e"/>
<line x1="816.96" y1="257.44" x2="816.96" y2="271.90" stroke="#ef4444" stroke-width="1"/>
<rect x="813.10" y="259.13" width="7.74" height="2.57" fill="#ef4444"/>
<line x1="829.59" y1="260.55" x2="829.59" y2="278.20" stroke="#ef4444" stroke-width="1"/>
<rect x="825.72" y="261.61" width="7.74" height="12.15" fill="#ef4444"/>
<line x1="842.22" y1="270.75" x2="842.22" y2="289.56" stroke="#22c55e" stroke-width="1"/>
<rect x="838.35" y="277.32" width="7.74" height="1.86" fill="#22c55e"/>
<line x1="854.84" y1="274.03" x2="854.84" y2="291.96" stroke="#22c55e" stroke-width="1"/>
<rect x="850.98" y="280.51" width="7.74" height="6.83" fill="#22c55e"/>
<line x1="867.47" y1="273.41" x2="867.47" y2="297.72" stroke="#ef4444" stroke-width="1"/>
<rect x="863.60" y="273.41" width="7.74" height="22.18" fill="#ef4444"/>
<line x1="880.10" y1="314.22" x2="880.10" y2="350.69" stroke="#ef4444" stroke-width="1"/>
<rect x="876.23" y="317.95" width="7.74" height="30.96" fill="#ef4444"/>
<line x1="892.72" y1="328.06" x2="892.72" y2="346.07" stroke="#22c55e" stroke-width="1"/>
<rect x="888.86" y="336.31" width="7.74" height="1.86" fill="#22c55e"/>
<line x1="905.35" y1="333.83" x2="905.35" y2="357.61" stroke="#ef4444" stroke-width="1"/>
<rect x="901.48" y="338.18" width="7.74" height="13.48" fill="#ef4444"/>
<line x1="917.98" y1="339.15" x2="917.98" y2="357.16" stroke="#ef4444" stroke-width="1"/>
<rect x="914.11" y="347.05" width="7.74" height="6.21" fill="#ef4444"/>
<line x1="930.60" y1="335.43" x2="930.60" y2="351.48" stroke="#22c55e" stroke-width="1"/>
<rect x="926.73" y="342.88" width="7.74" height="5.23" fill="#22c55e"/>
<line x1="943.23" y1="306.50" x2="943.23" y2="338.09" stroke="#22c55e" stroke-width="1"/>
<rect x="939.36" y="312.01" width="7.74" height="6.65" fill="#22c55e"/>
<line x1="955.86" y1="294.88" x2="955.86" y2="327.09" stroke="#22c55e" stroke-width="1"/>
<rect x="951.99" y="297.99" width="7.74" height="14.73" fill="#22c55e"/>
<line x1="968.48" y1="282.55" x2="968.48" y2="298.79" stroke="#ef4444" stroke-width="1"/>
<rect x="964.61" y="288.23" width="7.74" height="7.98" fill="#ef4444"/>
<line x1="981.11" y1="294.00" x2="981.11" y2="322.12" stroke="#ef4444" stroke-width="1"/>
<rect x="977.24" y="294.79" width="7.74" height="18.19" fill="#ef4444"/>
<line x1="993.73" y1="316.00" x2="993.73" y2="328.33" stroke="#ef4444" stroke-width="1"/>
<rect x="989.87" y="320.43" width="7.74" height="5.32" fill="#ef4444"/>
<line x1="1006.36" y1="319.28" x2="1006.36" y2="340.66" stroke="#ef4444" stroke-width="1"/>
<rect x="1002.49" y="320.61" width="7.74" height="17.12" fill="#ef4444"/>
<line x1="1018.99" y1="332.14" x2="1018.99" y2="344.21" stroke="#ef4444" stroke-width="1"/>
<rect x="1015.12" y="333.12" width="7.74" height="7.27" fill="#ef4444"/>
<line x1="1031.61" y1="333.12" x2="1031.61" y2="345.72" stroke="#22c55e" stroke-width="1"/>
<rect x="1027.75" y="334.27" width="7.74" height="6.03" fill="#22c55e"/>
<line x1="1044.24" y1="318.75" x2="1044.24" y2="338.00" stroke="#ef4444" stroke-width="1"/>
<rect x="1040.37" y="326.38" width="7.74" height="10.03" fill="#ef4444"/>
<line x1="1056.87" y1="313.78" x2="1056.87" y2="336.85" stroke="#22c55e" stroke-width="1"/>
<rect x="1053.00" y="317.86" width="7.74" height="14.11" fill="#22c55e"/>
<line x1="1069.49" y1="315.02" x2="1069.49" y2="327.44" stroke="#22c55e" stroke-width="1"/>
<rect x="1065.63" y="319.90" width="7.74" height="6.57" fill="#22c55e"/>
<line x1="1082.12" y1="314.22" x2="1082.12" y2="330.10" stroke="#ef4444" stroke-width="1"/>
<rect x="1078.25" y="318.39" width="7.74" height="10.82" fill="#ef4444"/>
<line x1="1094.75" y1="305.53" x2="1094.75" y2="336.14" stroke="#22c55e" stroke-width="1"/>
<rect x="1090.88" y="311.03" width="7.74" height="21.29" fill="#22c55e"/>
<line x1="1107.37" y1="306.24" x2="1107.37" y2="320.79" stroke="#ef4444" stroke-width="1"/>
<rect x="1103.51" y="311.83" width="7.74" height="6.21" fill="#ef4444"/>
<line x1="1120.00" y1="289.91" x2="1120.00" y2="323.98" stroke="#22c55e" stroke-width="1"/>
<rect x="1116.13" y="296.57" width="7.74" height="23.86" fill="#22c55e"/>
<polyline points="72.00,509.88 84.63,511.31 97.25,513.62 109.88,517.56 122.51,520.98 135.13,520.37 147.76,517.19 160.39,514.55 173.01,506.70 185.64,500.28 198.27,495.17 210.89,488.65 223.52,479.62 236.14,472.05 248.77,465.66 261.40,458.68 274.02,452.93 286.65,447.01 299.28,442.07 311.90,436.81 324.53,431.07 337.16,424.76 349.78,417.56 362.41,410.85 375.04,404.20 387.66,398.45 400.29,393.69 412.92,388.59 425.54,384.19 438.17,378.08 450.80,373.76 463.42,368.31 476.05,362.55 488.67,358.33 501.30,355.47 513.93,354.68 526.55,355.11 539.18,353.97 551.81,352.74 564.43,352.00 577.06,351.94 589.69,352.64 602.31,352.88 614.94,353.12 627.57,353.17 640.19,352.17 652.82,350.80 665.45,347.98 678.07,346.88 690.70,344.98 703.33,344.03 715.95,342.23 728.58,340.12 741.20,336.76 753.83,333.09 766.46,327.53 779.08,322.10 791.71,318.12 804.34,313.12 816.96,308.22 829.59,304.94 842.22,302.31 854.84,300.23 867.47,299.79 880.10,304.47 892.72,307.50 905.35,311.71 917.98,315.66 930.60,318.26 943.23,317.66 955.86,315.79 968.48,313.92 981.11,313.83 993.73,314.97 1006.36,317.14 1018.99,319.35 1031.61,320.77 1044.24,322.26 1056.87,321.84 1069.49,321.66 1082.12,322.38 1094.75,321.30 1107.37,320.99 1120.00,318.66" fill="none" stroke="#f59e0b" stroke-width="2"/>
<polyline points="72.00,490.92 84.63,492.25 97.25,493.95 109.88,496.34 122.51,498.58 135.13,499.21 147.76,498.73 160.39,498.37 173.01,495.77 185.64,493.55 198.27,491.71 210.89,489.16 223.52,485.43 236.14,482.08 248.77,479.06 261.40,475.66 274.02,472.62 286.65,469.42 299.28,466.50 311.90,463.38 324.53,459.97 337.16,456.24 349.78,452.04 362.41,447.93 375.04,443.74 387.66,439.81 400.29,436.23 412.92,432.47 425.54,428.93 438.17,424.66 450.80,421.06 463.42,416.96 476.05,412.68 488.67,408.98 501.30,405.81 513.93,403.51 526.55,401.77 539.18,399.48 551.81,397.18 564.43,395.13 577.06,393.42 589.69,392.08 602.31,390.64 614.94,389.25 627.57,387.86 640.19,386.08 652.82,384.19 665.45,381.72 678.07,379.94 690.70,377.86 703.33,376.18 715.95,374.18 728.58,372.06 741.20,369.42 753.83,366.63 766.46,363.03 779.08,359.40 791.71,356.30 804.34,352.74 816.96,349.17 829.59,346.21 842.22,343.51 854.84,341.04 867.47,339.26 880.10,339.64 892.72,339.51 905.35,339.98 917.98,340.50 930.60,340.60 943.23,339.48 955.86,337.85 968.48,336.22 981.11,335.30 993.73,334.93 1006.36,335.04 1018.99,335.25 1031.61,335.21 1044.24,335.26 1056.87,334.58 1069.49,334.00 1082.12,333.81 1094.75,332.92 1107.37,332.34 1120.00,330.93" fill="none" stroke="#38bdf8" stroke-width="2"/>
<line x1="72" y1="344.03" x2="1120" y2="344.03" stroke="#22d3ee" stroke-width="1.5"/>
<text x="78" y="339.03" fill="#22d3ee" font-family="sans-serif" font-size="11">Pullback entry 84.04</text>
<line x1="72" y1="370.33" x2="1120" y2="370.33" stroke="#94a3b8" stroke-width="1.5" stroke-dasharray="6 4"/>
<text x="78" y="365.33" fill="#94a3b8" font-family="sans-serif" font-size="11">Swing low 81.63</text>
<line x1="72" y1="399.74" x2="1120" y2="399.74" stroke="#fb7185" stroke-width="1.5"/>
<text x="78" y="394.74" fill="#fb7185" font-family="sans-serif" font-size="11">Stop 78.94</text>
<line x1="72" y1="231.23" x2="1120" y2="231.23" stroke="#4ade80" stroke-width="1.5"/>
<text x="78" y="226.23" fill="#4ade80" font-family="sans-serif" font-size="11">TP1 94.38</text>
<line x1="72" y1="118.89" x2="1120" y2="118.89" stroke="#c084fc" stroke-width="1.5"/>
<text x="78" y="113.89" fill="#c084fc" font-family="sans-serif" font-size="11">TP2 104.68</text>
<line x1="703.33" y1="92" x2="703.33" y2="594" stroke="#e2e8f0" stroke-width="1" stroke-dasharray="3 4"/>
<circle cx="703.33" cy="334.99" r="5" fill="#f8fafc"/>
<text x="710.33" y="107" fill="#e2e8f0" font-family="sans-serif" font-size="11">Signal</text>
<polygon points="703.33,335.57 695.33,343.57 703.33,351.57 711.33,343.57" fill="none" stroke="#fbbf24" stroke-width="2"/>
<text x="713.33" y="347.57" fill="#fbbf24" font-family="sans-serif" font-size="11">No entry</text>
<text x="72.00" y="622" text-anchor="middle" fill="#64748b" font-family="monospace" font-size="11">2020-10-23</text>
<text x="286.65" y="622" text-anchor="middle" fill="#64748b" font-family="monospace" font-size="11">2020-11-17</text>
<text x="488.67" y="622" text-anchor="middle" fill="#64748b" font-family="monospace" font-size="11">2020-12-10</text>
<text x="703.33" y="622" text-anchor="middle" fill="#64748b" font-family="monospace" font-size="11">2021-01-06</text>
<text x="905.35" y="622" text-anchor="middle" fill="#64748b" font-family="monospace" font-size="11">2021-01-29</text>
<text x="1120.00" y="622" text-anchor="middle" fill="#64748b" font-family="monospace" font-size="11">2021-02-24</text>
<line x1="72" y1="632" x2="96" y2="632" stroke="#f59e0b" stroke-width="2"/><text x="102" y="636" fill="#94a3b8" font-family="sans-serif" font-size="11">EMA20</text>
<line x1="176" y1="632" x2="200" y2="632" stroke="#38bdf8" stroke-width="2"/><text x="206" y="636" fill="#94a3b8" font-family="sans-serif" font-size="11">EMA50</text>
<text x="1120" y="654" text-anchor="end" fill="#475569" font-family="sans-serif" font-size="11">Retrospective holdout · Out-of-sample · Not forward validation</text>
</svg>