<svg xmlns="http://www.w3.org/2000/svg" width="1200" height="680" viewBox="0 0 1200 680" role="img" data-entry="44.39529641" data-stop="38.00144085" data-target-1="57.18300752" data-target-2="69.97071863" data-swing-low="41.13503512" data-signal-timestamp="2020-05-04T00:00:00">
<title>SO EXPIRED trade evidence</title>
<desc>Daily candles with frozen swing strategy levels for signal 2020-05-04.</desc>
<rect width="1200" height="680" fill="#020617"/>
<text x="72" y="34" fill="#f8fafc" font-family="sans-serif" font-size="22" font-weight="600">SO · The Southern Company · EXPIRED</text>
<text x="72" y="62" fill="#94a3b8" font-family="sans-serif" font-size="14">Signal 2020-05-04T00:00:00 · Regime Bear · Engine score 65.0 · SKIP</text>
<line x1="72" y1="594.00" x2="1120" y2="594.00" stroke="#1e293b" stroke-width="1"/>
<text x="1130" y="598.00" fill="#64748b" font-family="monospace" font-size="11">30.83</text>
<line x1="72" y1="493.60" x2="1120" y2="493.60" stroke="#1e293b" stroke-width="1"/>
<text x="1130" y="497.60" fill="#64748b" font-family="monospace" font-size="11">39.10</text>
<line x1="72" y1="393.20" x2="1120" y2="393.20" stroke="#1e293b" stroke-width="1"/>
<text x="1130" y="397.20" fill="#64748b" font-family="monospace" font-size="11">47.37</text>
<line x1="72" y1="292.80" x2="1120" y2="292.80" stroke="#1e293b" stroke-width="1"/>
<text x="1130" y="296.80" fill="#64748b" font-family="monospace" font-size="11">55.64</text>
<line x1="72" y1="192.40" x2="1120" y2="192.40" stroke="#1e293b" stroke-width="1"/>
<text x="1130" y="196.40" fill="#64748b" font-family="monospace" font-size="11">63.92</text>
<line x1="72" y1="92.00" x2="1120" y2="92.00" stroke="#1e293b" stroke-width="1"/>
<text x="1130" y="96.00" fill="#64748b" font-family="monospace" font-size="11">72.19</text>
<line x1="72.00" y1="295.50" x2="72.00" y2="308.98" stroke="#ef4444" stroke-width="1"/>
<rect x="68.13" y="302.58" width="7.74" height="6.12" fill="#ef4444"/>
<line x1="84.63" y1="304.11" x2="84.63" y2="321.03" stroke="#ef4444" stroke-width="1"/>
<rect x="80.76" y="311.08" width="7.74" height="8.99" fill="#ef4444"/>
<line x1="97.25" y1="316.92" x2="97.25" y2="331.64" stroke="#ef4444" stroke-width="1"/>
<rect x="93.39" y="319.11" width="7.74" height="9.94" fill="#ef4444"/>
<line x1="109.88" y1="322.46" x2="109.88" y2="335.85" stroke="#ef4444" stroke-width="1"/>
<rect x="106.01" y="329.82" width="7.74" height="5.64" fill="#ef4444"/>
<line x1="122.51" y1="334.60" x2="122.51" y2="367.20" stroke="#ef4444" stroke-width="1"/>
<rect x="118.64" y="339.38" width="7.74" height="27.72" fill="#ef4444"/>
<line x1="135.13" y1="376.86" x2="135.13" y2="403.53" stroke="#ef4444" stroke-width="1"/>
<rect x="131.26" y="378.39" width="7.74" height="12.81" fill="#ef4444"/>
<line x1="147.76" y1="354.97" x2="147.76" y2="392.06" stroke="#22c55e" stroke-width="1"/>
<rect x="143.89" y="357.07" width="7.74" height="31.26" fill="#22c55e"/>
<line x1="160.39" y1="337.28" x2="160.39" y2="360.13" stroke="#ef4444" stroke-width="1"/>
<rect x="156.52" y="349.42" width="7.74" height="7.94" fill="#ef4444"/>
<line x1="173.01" y1="319.69" x2="173.01" y2="350.38" stroke="#22c55e" stroke-width="1"/>
<rect x="169.14" y="320.07" width="7.74" height="30.21" fill="#22c55e"/>
<line x1="185.64" y1="312.81" x2="185.64" y2="334.32" stroke="#22c55e" stroke-width="1"/>
<rect x="181.77" y="322.27" width="7.74" height="5.45" fill="#22c55e"/>
<line x1="198.27" y1="326.19" x2="198.27" y2="361.18" stroke="#22c55e" stroke-width="1"/>
<rect x="194.40" y="328.96" width="7.74" height="13.00" fill="#22c55e"/>
<line x1="210.89" y1="345.79" x2="210.89" y2="378.39" stroke="#ef4444" stroke-width="1"/>
<rect x="207.02" y="367.30" width="7.74" height="6.69" fill="#ef4444"/>
<line x1="223.52" y1="362.33" x2="223.52" y2="404.49" stroke="#ef4444" stroke-width="1"/>
<rect x="219.65" y="365.10" width="7.74" height="10.23" fill="#ef4444"/>
<line x1="236.14" y1="387.57" x2="236.14" y2="422.46" stroke="#ef4444" stroke-width="1"/>
<rect x="232.28" y="390.43" width="7.74" height="21.61" fill="#ef4444"/>
<line x1="248.77" y1="426.38" x2="248.77" y2="489.96" stroke="#ef4444" stroke-width="1"/>
<rect x="244.90" y="453.72" width="7.74" height="15.58" fill="#ef4444"/>
<line x1="261.40" y1="440.63" x2="261.40" y2="480.68" stroke="#ef4444" stroke-width="1"/>
<rect x="257.53" y="441.29" width="7.74" height="10.99" fill="#ef4444"/>
<line x1="274.02" y1="465.10" x2="274.02" y2="515.77" stroke="#ef4444" stroke-width="1"/>
<rect x="270.16" y="500.57" width="7.74" height="12.43" fill="#ef4444"/>
<line x1="286.65" y1="427.34" x2="286.65" y2="500.47" stroke="#22c55e" stroke-width="1"/>
<rect x="282.78" y="427.53" width="7.74" height="72.18" fill="#22c55e"/>
<line x1="299.28" y1="431.45" x2="299.28" y2="485.08" stroke="#22c55e" stroke-width="1"/>
<rect x="295.41" y="433.65" width="7.74" height="27.82" fill="#22c55e"/>
<line x1="311.90" y1="432.69" x2="311.90" y2="485.37" stroke="#ef4444" stroke-width="1"/>
<rect x="308.04" y="433.65" width="7.74" height="47.99" fill="#ef4444"/>
<line x1="324.53" y1="478.58" x2="324.53" y2="527.05" stroke="#ef4444" stroke-width="1"/>
<rect x="320.66" y="480.59" width="7.74" height="44.46" fill="#ef4444"/>
<line x1="337.16" y1="530.01" x2="337.16" y2="567.11" stroke="#ef4444" stroke-width="1"/>
<rect x="333.29" y="531.54" width="7.74" height="23.42" fill="#ef4444"/>
<line x1="349.78" y1="496.07" x2="349.78" y2="540.82" stroke="#22c55e" stroke-width="1"/>
<rect x="345.92" y="499.42" width="7.74" height="33.17" fill="#22c55e"/>
<line x1="362.41" y1="471.12" x2="362.41" y2="516.82" stroke="#22c55e" stroke-width="1"/>
<rect x="358.54" y="488.90" width="7.74" height="11.76" fill="#22c55e"/>
<line x1="375.04" y1="434.79" x2="375.04" y2="491.20" stroke="#22c55e" stroke-width="1"/>
<rect x="371.17" y="441.10" width="7.74" height="49.14" fill="#22c55e"/>
<line x1="387.66" y1="411.28" x2="387.66" y2="461.56" stroke="#22c55e" stroke-width="1"/>
<rect x="383.80" y="432.79" width="7.74" height="26.67" fill="#22c55e"/>
<line x1="400.29" y1="410.22" x2="400.29" y2="430.40" stroke="#22c55e" stroke-width="1"/>
<rect x="396.42" y="413.86" width="7.74" height="12.14" fill="#22c55e"/>
<line x1="412.92" y1="420.55" x2="412.92" y2="455.92" stroke="#ef4444" stroke-width="1"/>
<rect x="409.05" y="423.32" width="7.74" height="27.34" fill="#ef4444"/>
<line x1="425.54" y1="467.01" x2="425.54" y2="497.32" stroke="#ef4444" stroke-width="1"/>
<rect x="421.67" y="472.08" width="7.74" height="16.83" fill="#ef4444"/>
<line x1="438.17" y1="463.00" x2="438.17" y2="496.84" stroke="#22c55e" stroke-width="1"/>
<rect x="434.30" y="467.30" width="7.74" height="28.59" fill="#22c55e"/>
<line x1="450.80" y1="463.28" x2="450.80" y2="490.82" stroke="#ef4444" stroke-width="1"/>
<rect x="446.93" y="475.04" width="7.74" height="12.62" fill="#ef4444"/>
<line x1="463.42" y1="430.97" x2="463.42" y2="468.92" stroke="#22c55e" stroke-width="1"/>
<rect x="459.55" y="438.62" width="7.74" height="27.44" fill="#22c55e"/>
<line x1="476.05" y1="418.54" x2="476.05" y2="443.59" stroke="#ef4444" stroke-width="1"/>
<rect x="472.18" y="419.88" width="7.74" height="21.41" fill="#ef4444"/>
<line x1="488.67" y1="407.83" x2="488.67" y2="444.35" stroke="#22c55e" stroke-width="1"/>
<rect x="484.81" y="412.04" width="7.74" height="27.72" fill="#22c55e"/>
<line x1="501.30" y1="376.86" x2="501.30" y2="406.02" stroke="#22c55e" stroke-width="1"/>
<rect x="497.43" y="391.49" width="7.74" height="13.58" fill="#22c55e"/>
<line x1="513.93" y1="392.44" x2="513.93" y2="421.79" stroke="#ef4444" stroke-width="1"/>
<rect x="510.06" y="394.64" width="7.74" height="21.80" fill="#ef4444"/>
<line x1="526.55" y1="398.56" x2="526.55" y2="413.38" stroke="#ef4444" stroke-width="1"/>
<rect x="522.69" y="403.53" width="7.74" height="1.20" fill="#ef4444"/>
<line x1="539.18" y1="413.86" x2="539.18" y2="437.85" stroke="#ef4444" stroke-width="1"/>
<rect x="535.31" y="413.95" width="7.74" height="19.98" fill="#ef4444"/>
<line x1="551.81" y1="428.58" x2="551.81" y2="442.25" stroke="#ef4444" stroke-width="1"/>
<rect x="547.94" y="430.78" width="7.74" height="8.60" fill="#ef4444"/>
<line x1="564.43" y1="415.20" x2="564.43" y2="432.79" stroke="#22c55e" stroke-width="1"/>
<rect x="560.57" y="418.83" width="7.74" height="9.27" fill="#22c55e"/>
<line x1="577.06" y1="425.62" x2="577.06" y2="440.34" stroke="#ef4444" stroke-width="1"/>
<rect x="573.19" y="425.62" width="7.74" height="11.76" fill="#ef4444"/>
<line x1="589.69" y1="434.60" x2="589.69" y2="448.18" stroke="#22c55e" stroke-width="1"/>
<rect x="585.82" y="437.66" width="7.74" height="5.64" fill="#22c55e"/>
<line x1="602.31" y1="417.30" x2="602.31" y2="430.68" stroke="#22c55e" stroke-width="1"/>
<rect x="598.45" y="422.84" width="7.74" height="5.45" fill="#22c55e"/>
<line x1="614.94" y1="418.54" x2="614.94" y2="431.93" stroke="#ef4444" stroke-width="1"/>
<rect x="611.07" y="423.23" width="7.74" height="2.01" fill="#ef4444"/>
<line x1="627.57" y1="411.94" x2="627.57" y2="430.11" stroke="#22c55e" stroke-width="1"/>
<rect x="623.70" y="416.34" width="7.74" height="7.84" fill="#22c55e"/>
<line x1="640.19" y1="402.00" x2="640.19" y2="414.05" stroke="#22c55e" stroke-width="1"/>
<rect x="636.33" y="409.17" width="7.74" height="2.77" fill="#22c55e"/>
<line x1="652.82" y1="395.79" x2="652.82" y2="416.06" stroke="#ef4444" stroke-width="1"/>
<rect x="648.95" y="402.19" width="7.74" height="10.99" fill="#ef4444"/>
<line x1="665.45" y1="401.33" x2="665.45" y2="420.74" stroke="#ef4444" stroke-width="1"/>
<rect x="661.58" y="402.10" width="7.74" height="17.69" fill="#ef4444"/>
<line x1="678.07" y1="419.02" x2="678.07" y2="436.04" stroke="#ef4444" stroke-width="1"/>
<rect x="674.20" y="419.11" width="7.74" height="6.79" fill="#ef4444"/>
<line x1="690.70" y1="429.82" x2="690.70" y2="451.14" stroke="#ef4444" stroke-width="1"/>
<rect x="686.83" y="431.16" width="7.74" height="16.92" fill="#ef4444"/>
<line x1="703.33" y1="441.39" x2="703.33" y2="455.16" stroke="#22c55e" stroke-width="1"/>
<rect x="699.46" y="443.21" width="7.74" height="4.30" fill="#22c55e"/>
<line x1="715.95" y1="430.40" x2="715.95" y2="440.91" stroke="#22c55e" stroke-width="1"/>
<rect x="712.08" y="436.42" width="7.74" height="3.73" fill="#22c55e"/>
<line x1="728.58" y1="433.55" x2="728.58" y2="456.78" stroke="#ef4444" stroke-width="1"/>
<rect x="724.71" y="433.55" width="7.74" height="21.89" fill="#ef4444"/>
<line x1="741.20" y1="444.83" x2="741.20" y2="453.24" stroke="#ef4444" stroke-width="1"/>
<rect x="737.34" y="449.33" width="7.74" height="1.20" fill="#ef4444"/>
<line x1="753.83" y1="436.32" x2="753.83" y2="446.74" stroke="#22c55e" stroke-width="1"/>
<rect x="749.96" y="438.52" width="7.74" height="5.74" fill="#22c55e"/>
<line x1="766.46" y1="432.88" x2="766.46" y2="451.81" stroke="#22c55e" stroke-width="1"/>
<rect x="762.59" y="434.70" width="7.74" height="8.99" fill="#22c55e"/>
<line x1="779.08" y1="424.56" x2="779.08" y2="440.24" stroke="#ef4444" stroke-width="1"/>
<rect x="775.22" y="432.50" width="7.74" height="4.97" fill="#ef4444"/>
<line x1="791.71" y1="438.04" x2="791.71" y2="458.50" stroke="#ef4444" stroke-width="1"/>
<rect x="787.84" y="440.82" width="7.74" height="13.19" fill="#ef4444"/>
<line x1="804.34" y1="444.26" x2="804.34" y2="464.43" stroke="#22c55e" stroke-width="1"/>
<rect x="800.47" y="444.83" width="7.74" height="14.53" fill="#22c55e"/>
<line x1="816.96" y1="448.60" x2="816.96" y2="465.34" stroke="#ef4444" stroke-width="1"/>
<rect x="813.10" y="449.77" width="7.74" height="10.25" fill="#ef4444"/>
<line x1="829.59" y1="437.77" x2="829.59" y2="448.31" stroke="#22c55e" stroke-width="1"/>
<rect x="825.72" y="441.83" width="7.74" height="4.45" fill="#22c55e"/>
<line x1="842.22" y1="442.32" x2="842.22" y2="450.15" stroke="#ef4444" stroke-width="1"/>
<rect x="838.35" y="445.03" width="7.74" height="5.03" fill="#ef4444"/>
<line x1="854.84" y1="433.13" x2="854.84" y2="448.31" stroke="#22c55e" stroke-width="1"/>
<rect x="850.98" y="437.87" width="7.74" height="6.19" fill="#22c55e"/>
<line x1="867.47" y1="435.26" x2="867.47" y2="448.89" stroke="#ef4444" stroke-width="1"/>
<rect x="863.60" y="438.83" width="7.74" height="8.71" fill="#ef4444"/>
<line x1="880.10" y1="439.90" x2="880.10" y2="449.96" stroke="#22c55e" stroke-width="1"/>
<rect x="876.23" y="440.29" width="7.74" height="8.32" fill="#22c55e"/>
<line x1="892.72" y1="428.19" x2="892.72" y2="440.67" stroke="#ef4444" stroke-width="1"/>
<rect x="888.86" y="431.39" width="7.74" height="8.13" fill="#ef4444"/>
<line x1="905.35" y1="429.94" x2="905.35" y2="442.12" stroke="#ef4444" stroke-width="1"/>
<rect x="901.48" y="429.94" width="7.74" height="6.19" fill="#ef4444"/>
<line x1="917.98" y1="416.39" x2="917.98" y2="431.19" stroke="#22c55e" stroke-width="1"/>
<rect x="914.11" y="417.75" width="7.74" height="11.80" fill="#22c55e"/>
<line x1="930.60" y1="410.01" x2="930.60" y2="424.81" stroke="#22c55e" stroke-width="1"/>
<rect x="926.73" y="416.20" width="7.74" height="5.22" fill="#22c55e"/>
<line x1="943.23" y1="406.04" x2="943.23" y2="421.52" stroke="#22c55e" stroke-width="1"/>
<rect x="939.36" y="410.10" width="7.74" height="5.80" fill="#22c55e"/>
<line x1="955.86" y1="406.82" x2="955.86" y2="416.20" stroke="#22c55e" stroke-width="1"/>
<rect x="951.99" y="407.20" width="7.74" height="1.20" fill="#22c55e"/>
<line x1="968.48" y1="394.43" x2="968.48" y2="406.24" stroke="#22c55e" stroke-width="1"/>
<rect x="964.61" y="400.33" width="7.74" height="3.58" fill="#22c55e"/>
<line x1="981.11" y1="400.82" x2="981.11" y2="416.01" stroke="#ef4444" stroke-width="1"/>
<rect x="977.24" y="403.24" width="7.74" height="4.45" fill="#ef4444"/>
<line x1="993.73" y1="387.66" x2="993.73" y2="404.69" stroke="#22c55e" stroke-width="1"/>
<rect x="989.87" y="402.85" width="7.74" height="1.20" fill="#22c55e"/>
<line x1="1006.36" y1="383.31" x2="1006.36" y2="405.95" stroke="#22c55e" stroke-width="1"/>
<rect x="1002.49" y="385.24" width="7.74" height="19.06" fill="#22c55e"/>
<line x1="1018.99" y1="390.85" x2="1018.99" y2="404.69" stroke="#22c55e" stroke-width="1"/>
<rect x="1015.12" y="394.05" width="7.74" height="1.20" fill="#22c55e"/>
<line x1="1031.61" y1="385.15" x2="1031.61" y2="398.30" stroke="#ef4444" stroke-width="1"/>
<rect x="1027.75" y="395.01" width="7.74" height="1.20" fill="#ef4444"/>
<line x1="1044.24" y1="405.36" x2="1044.24" y2="428.29" stroke="#ef4444" stroke-width="1"/>
<rect x="1040.37" y="407.20" width="7.74" height="18.48" fill="#ef4444"/>
<line x1="1056.87" y1="412.52" x2="1056.87" y2="432.35" stroke="#ef4444" stroke-width="1"/>
<rect x="1053.00" y="413.78" width="7.74" height="11.12" fill="#ef4444"/>
<line x1="1069.49" y1="417.26" x2="1069.49" y2="440.87" stroke="#22c55e" stroke-width="1"/>
<rect x="1065.63" y="422.49" width="7.74" height="10.83" fill="#22c55e"/>
<line x1="1082.12" y1="406.91" x2="1082.12" y2="427.81" stroke="#ef4444" stroke-width="1"/>
<rect x="1078.25" y="410.49" width="7.74" height="13.93" fill="#ef4444"/>
<line x1="1094.75" y1="421.52" x2="1094.75" y2="433.32" stroke="#ef4444" stroke-width="1"/>
<rect x="1090.88" y="421.91" width="7.74" height="4.26" fill="#ef4444"/>
<line x1="1107.37" y1="424.61" x2="1107.37" y2="434.19" stroke="#22c55e" stroke-width="1"/>
<rect x="1103.51" y="425.49" width="7.74" height="3.87" fill="#22c55e"/>
<line x1="1120.00" y1="415.91" x2="1120.00" y2="449.67" stroke="#ef4444" stroke-width="1"/>
<rect x="1116.13" y="417.94" width="7.74" height="31.73" fill="#ef4444"/>
<polyline points="72.00,315.19 84.63,315.66 97.25,316.93 109.88,318.70 122.51,323.31 135.13,329.77 147.76,332.37 160.39,334.75 173.01,333.35 185.64,332.30 198.27,331.98 210.89,335.98 223.52,339.73 236.14,346.62 248.77,358.30 261.40,367.25 274.02,381.13 286.65,385.55 299.28,390.13 311.90,398.85 324.53,410.87 337.16,424.59 349.78,431.72 362.41,437.16 375.04,437.54 387.66,437.09 400.29,434.87 412.92,436.38 425.54,441.38 438.17,443.85 450.80,448.02 463.42,447.13 476.05,446.57 488.67,443.28 501.30,438.35 513.93,436.26 526.55,433.21 539.18,433.28 551.81,433.86 564.43,432.43 577.06,432.90 589.69,433.35 602.31,432.35 614.94,431.67 627.57,430.21 640.19,428.21 652.82,426.78 665.45,426.11 678.07,426.09 690.70,428.19 703.33,429.62 715.95,430.27 728.58,432.66 741.20,434.30 753.83,434.70 766.46,434.70 779.08,434.96 791.71,436.78 804.34,437.54 816.96,439.68 829.59,439.89 842.22,440.86 854.84,440.57 867.47,441.24 880.10,441.15 892.72,440.99 905.35,440.53 917.98,438.36 930.60,436.25 943.23,433.76 955.86,431.23 968.48,428.29 981.11,426.32 993.73,424.09 1006.36,420.39 1018.99,417.88 1031.61,415.76 1044.24,416.70 1056.87,417.48 1069.49,417.96 1082.12,418.58 1094.75,419.30 1107.37,419.89 1120.00,422.72" fill="none" stroke="#f59e0b" stroke-width="2"/>
<polyline points="72.00,335.43 84.63,334.82 97.25,334.60 109.88,334.63 122.51,335.91 135.13,338.07 147.76,338.82 160.39,339.55 173.01,338.78 185.64,338.13 198.27,337.77 210.89,339.19 223.52,340.61 236.14,343.41 248.77,348.35 261.40,352.43 274.02,358.72 286.65,361.42 299.28,364.25 311.90,368.86 324.53,374.98 337.16,382.04 349.78,386.64 362.41,390.65 375.04,392.63 387.66,394.21 400.29,394.98 412.92,397.16 425.54,400.76 438.17,403.37 450.80,406.67 463.42,407.93 476.05,409.23 488.67,409.34 501.30,408.64 513.93,408.95 526.55,408.76 539.18,409.75 551.81,410.91 564.43,411.22 577.06,412.25 589.69,413.25 602.31,413.62 614.94,414.08 627.57,414.17 640.19,413.97 652.82,413.94 665.45,414.17 678.07,414.63 690.70,415.94 703.33,417.01 715.95,417.77 728.58,419.25 741.20,420.45 753.83,421.16 766.46,421.69 779.08,422.31 791.71,423.55 804.34,424.38 816.96,425.78 829.59,426.41 842.22,427.34 854.84,427.75 867.47,428.53 880.10,428.99 892.72,429.40 905.35,429.66 917.98,429.20 930.60,428.69 943.23,427.96 955.86,427.14 968.48,426.09 981.11,425.37 993.73,424.49 1006.36,422.95 1018.99,421.82 1031.61,420.79 1044.24,420.98 1056.87,421.13 1069.49,421.19 1082.12,421.31 1094.75,421.50 1107.37,421.66 1120.00,422.76" fill="none" stroke="#38bdf8" stroke-width="2"/>
<line x1="72" y1="429.62" x2="1120" y2="429.62" stroke="#22d3ee" stroke-width="1.5"/>
<text x="78" y="424.62" fill="#22d3ee" font-family="sans-serif" font-size="11">Pullback entry 44.37</text>
<line x1="72" y1="468.92" x2="1120" y2="468.92" stroke="#94a3b8" stroke-width="1.5" stroke-dasharray="6 4"/>
<text x="78" y="463.92" fill="#94a3b8" font-family="sans-serif" font-size="11">Swing low 41.14</text>
<line x1="72" y1="506.96" x2="1120" y2="506.96" stroke="#fb7185" stroke-width="1.5"/>
<text x="78" y="501.96" fill="#fb7185" font-family="sans-serif" font-size="11">Stop 38.00</text>
<line x1="72" y1="274.12" x2="1120" y2="274.12" stroke="#4ade80" stroke-width="1.5"/>
<text x="78" y="269.12" fill="#4ade80" font-family="sans-serif" font-size="11">TP1 57.18</text>
<line x1="72" y1="118.89" x2="1120" y2="118.89" stroke="#c084fc" stroke-width="1.5"/>
<text x="78" y="113.89" fill="#c084fc" font-family="sans-serif" font-size="11">TP2 69.97</text>
<line x1="703.33" y1="92" x2="703.33" y2="594" stroke="#e2e8f0" stroke-width="1" stroke-dasharray="3 4"/>
<circle cx="703.33" cy="443.21" r="5" fill="#f8fafc"/>
<text x="710.33" y="107" fill="#e2e8f0" font-family="sans-serif" font-size="11">Signal</text>
<polygon points="703.33,421.35 695.33,429.35 703.33,437.35 711.33,429.35" fill="none" stroke="#fbbf24" stroke-width="2"/>
<text x="713.33" y="433.35" fill="#fbbf24" font-family="sans-serif" font-size="11">No entry</text>
<text x="72.00" y="622" text-anchor="middle" fill="#64748b" font-family="monospace" font-size="11">2020-02-21</text>
<text x="286.65" y="622" text-anchor="middle" fill="#64748b" font-family="monospace" font-size="11">2020-03-17</text>
<text x="488.67" y="622" text-anchor="middle" fill="#64748b" font-family="monospace" font-size="11">2020-04-08</text>
<text x="703.33" y="622" text-anchor="middle" fill="#64748b" font-family="monospace" font-size="11">2020-05-04</text>
<text x="905.35" y="622" text-anchor="middle" fill="#64748b" font-family="monospace" font-size="11">2020-05-27</text>
<text x="1120.00" y="622" text-anchor="middle" fill="#64748b" font-family="monospace" font-size="11">2020-06-19</text>
<line x1="72" y1="632" x2="96" y2="632" stroke="#f59e0b" stroke-width="2"/><text x="102" y="636" fill="#94a3b8" font-family="sans-serif" font-size="11">EMA20</text>
<line x1="176" y1="632" x2="200" y2="632" stroke="#38bdf8" stroke-width="2"/><text x="206" y="636" fill="#94a3b8" font-family="sans-serif" font-size="11">EMA50</text>
<text x="1120" y="654" text-anchor="end" fill="#475569" font-family="sans-serif" font-size="11">Retrospective holdout · Out-of-sample · Not forward validation</text>
</svg>