<svg xmlns="http://www.w3.org/2000/svg" width="1200" height="680" viewBox="0 0 1200 680" role="img" data-entry="12.01230193" data-stop="11.44347803" data-target-1="13.14994974" data-target-2="14.28759755" data-swing-low="11.71941104" data-signal-timestamp="2017-09-21T00:00:00">
<title>KMI LOSER trade evidence</title>
<desc>Daily candles with frozen swing strategy levels for signal 2017-09-21.</desc>
<rect width="1200" height="680" fill="#020617"/>
<text x="72" y="34" fill="#f8fafc" font-family="sans-serif" font-size="22" font-weight="600">KMI · Kinder Morgan, Inc. · LOSER</text>
<text x="72" y="62" fill="#94a3b8" font-family="sans-serif" font-size="14">Signal 2017-09-21T00:00:00 · Regime Bull · Engine score 90.0 · SKIP</text>
<line x1="72" y1="594.00" x2="1120" y2="594.00" stroke="#1e293b" stroke-width="1"/>
<text x="1130" y="598.00" fill="#64748b" font-family="monospace" font-size="11">10.87</text>
<line x1="72" y1="493.60" x2="1120" y2="493.60" stroke="#1e293b" stroke-width="1"/>
<text x="1130" y="497.60" fill="#64748b" font-family="monospace" font-size="11">11.60</text>
<line x1="72" y1="393.20" x2="1120" y2="393.20" stroke="#1e293b" stroke-width="1"/>
<text x="1130" y="397.20" fill="#64748b" font-family="monospace" font-size="11">12.32</text>
<line x1="72" y1="292.80" x2="1120" y2="292.80" stroke="#1e293b" stroke-width="1"/>
<text x="1130" y="296.80" fill="#64748b" font-family="monospace" font-size="11">13.04</text>
<line x1="72" y1="192.40" x2="1120" y2="192.40" stroke="#1e293b" stroke-width="1"/>
<text x="1130" y="196.40" fill="#64748b" font-family="monospace" font-size="11">13.76</text>
<line x1="72" y1="92.00" x2="1120" y2="92.00" stroke="#1e293b" stroke-width="1"/>
<text x="1130" y="96.00" fill="#64748b" font-family="monospace" font-size="11">14.48</text>
<line x1="72.00" y1="434.09" x2="72.00" y2="455.55" stroke="#22c55e" stroke-width="1"/>
<rect x="68.00" y="441.81" width="8.00" height="5.15" fill="#22c55e"/>
<line x1="85.97" y1="438.38" x2="85.97" y2="453.83" stroke="#ef4444" stroke-width="1"/>
<rect x="81.97" y="441.81" width="8.00" height="6.87" fill="#ef4444"/>
<line x1="99.95" y1="423.78" x2="99.95" y2="448.68" stroke="#22c55e" stroke-width="1"/>
<rect x="95.95" y="430.65" width="8.00" height="13.73" fill="#22c55e"/>
<line x1="113.92" y1="419.49" x2="113.92" y2="434.09" stroke="#22c55e" stroke-width="1"/>
<rect x="109.92" y="429.79" width="8.00" height="1.20" fill="#22c55e"/>
<line x1="127.89" y1="424.64" x2="127.89" y2="446.10" stroke="#ef4444" stroke-width="1"/>
<rect x="123.89" y="425.50" width="8.00" height="8.58" fill="#ef4444"/>
<line x1="141.87" y1="417.78" x2="141.87" y2="440.09" stroke="#22c55e" stroke-width="1"/>
<rect x="137.87" y="419.49" width="8.00" height="14.59" fill="#22c55e"/>
<line x1="155.84" y1="283.87" x2="155.84" y2="361.12" stroke="#ef4444" stroke-width="1"/>
<rect x="151.84" y="335.37" width="8.00" height="7.73" fill="#ef4444"/>
<line x1="169.81" y1="323.35" x2="169.81" y2="355.11" stroke="#22c55e" stroke-width="1"/>
<rect x="165.81" y="331.94" width="8.00" height="15.45" fill="#22c55e"/>
<line x1="183.79" y1="331.08" x2="183.79" y2="368.85" stroke="#ef4444" stroke-width="1"/>
<rect x="179.79" y="331.94" width="8.00" height="30.90" fill="#ef4444"/>
<line x1="197.76" y1="339.66" x2="197.76" y2="373.14" stroke="#ef4444" stroke-width="1"/>
<rect x="193.76" y="343.96" width="8.00" height="25.75" fill="#ef4444"/>
<line x1="211.73" y1="339.66" x2="211.73" y2="373.14" stroke="#22c55e" stroke-width="1"/>
<rect x="207.73" y="361.98" width="8.00" height="6.01" fill="#22c55e"/>
<line x1="225.71" y1="339.96" x2="225.71" y2="369.32" stroke="#22c55e" stroke-width="1"/>
<rect x="221.71" y="339.96" width="8.00" height="20.73" fill="#22c55e"/>
<line x1="239.68" y1="332.18" x2="239.68" y2="356.37" stroke="#22c55e" stroke-width="1"/>
<rect x="235.68" y="346.00" width="8.00" height="1.20" fill="#22c55e"/>
<line x1="253.65" y1="336.50" x2="253.65" y2="363.28" stroke="#ef4444" stroke-width="1"/>
<rect x="249.65" y="342.55" width="8.00" height="1.20" fill="#ef4444"/>
<line x1="267.63" y1="339.96" x2="267.63" y2="357.23" stroke="#ef4444" stroke-width="1"/>
<rect x="263.63" y="339.96" width="8.00" height="10.36" fill="#ef4444"/>
<line x1="281.60" y1="350.32" x2="281.60" y2="367.60" stroke="#22c55e" stroke-width="1"/>
<rect x="277.60" y="352.05" width="8.00" height="11.23" fill="#22c55e"/>
<line x1="295.57" y1="351.19" x2="295.57" y2="367.60" stroke="#ef4444" stroke-width="1"/>
<rect x="291.57" y="357.23" width="8.00" height="3.45" fill="#ef4444"/>
<line x1="309.55" y1="355.50" x2="309.55" y2="367.60" stroke="#ef4444" stroke-width="1"/>
<rect x="305.55" y="357.23" width="8.00" height="6.05" fill="#ef4444"/>
<line x1="323.52" y1="363.28" x2="323.52" y2="374.51" stroke="#22c55e" stroke-width="1"/>
<rect x="319.52" y="367.60" width="8.00" height="1.20" fill="#22c55e"/>
<line x1="337.49" y1="368.46" x2="337.49" y2="405.60" stroke="#ef4444" stroke-width="1"/>
<rect x="333.49" y="379.69" width="8.00" height="22.46" fill="#ef4444"/>
<line x1="351.47" y1="397.82" x2="351.47" y2="415.96" stroke="#22c55e" stroke-width="1"/>
<rect x="347.47" y="402.14" width="8.00" height="1.20" fill="#22c55e"/>
<line x1="365.44" y1="393.51" x2="365.44" y2="439.28" stroke="#ef4444" stroke-width="1"/>
<rect x="361.44" y="400.42" width="8.00" height="32.82" fill="#ef4444"/>
<line x1="379.41" y1="430.64" x2="379.41" y2="468.65" stroke="#ef4444" stroke-width="1"/>
<rect x="375.41" y="439.28" width="8.00" height="21.59" fill="#ef4444"/>
<line x1="393.39" y1="442.74" x2="393.39" y2="470.37" stroke="#ef4444" stroke-width="1"/>
<rect x="389.39" y="450.51" width="8.00" height="13.82" fill="#ef4444"/>
<line x1="407.36" y1="464.33" x2="407.36" y2="485.92" stroke="#ef4444" stroke-width="1"/>
<rect x="403.36" y="465.19" width="8.00" height="14.68" fill="#ef4444"/>
<line x1="421.33" y1="469.51" x2="421.33" y2="495.42" stroke="#ef4444" stroke-width="1"/>
<rect x="417.33" y="476.42" width="8.00" height="15.55" fill="#ef4444"/>
<line x1="435.31" y1="494.56" x2="435.31" y2="519.60" stroke="#ef4444" stroke-width="1"/>
<rect x="431.31" y="497.15" width="8.00" height="21.59" fill="#ef4444"/>
<line x1="449.28" y1="496.28" x2="449.28" y2="533.42" stroke="#22c55e" stroke-width="1"/>
<rect x="445.28" y="505.79" width="8.00" height="15.55" fill="#22c55e"/>
<line x1="463.25" y1="499.74" x2="463.25" y2="515.29" stroke="#ef4444" stroke-width="1"/>
<rect x="459.25" y="503.19" width="8.00" height="2.59" fill="#ef4444"/>
<line x1="477.23" y1="480.74" x2="477.23" y2="506.65" stroke="#22c55e" stroke-width="1"/>
<rect x="473.23" y="485.06" width="8.00" height="19.86" fill="#22c55e"/>
<line x1="491.20" y1="455.69" x2="491.20" y2="491.10" stroke="#22c55e" stroke-width="1"/>
<rect x="487.20" y="466.06" width="8.00" height="24.18" fill="#22c55e"/>
<line x1="505.17" y1="456.56" x2="505.17" y2="475.56" stroke="#22c55e" stroke-width="1"/>
<rect x="501.17" y="462.60" width="8.00" height="3.45" fill="#22c55e"/>
<line x1="519.15" y1="444.46" x2="519.15" y2="461.74" stroke="#22c55e" stroke-width="1"/>
<rect x="515.15" y="452.24" width="8.00" height="4.32" fill="#22c55e"/>
<line x1="533.12" y1="447.92" x2="533.12" y2="472.10" stroke="#ef4444" stroke-width="1"/>
<rect x="529.12" y="448.78" width="8.00" height="17.27" fill="#ef4444"/>
<line x1="547.09" y1="463.46" x2="547.09" y2="476.42" stroke="#22c55e" stroke-width="1"/>
<rect x="543.09" y="465.19" width="8.00" height="8.64" fill="#22c55e"/>
<line x1="561.07" y1="448.78" x2="561.07" y2="473.83" stroke="#22c55e" stroke-width="1"/>
<rect x="557.07" y="460.87" width="8.00" height="5.18" fill="#22c55e"/>
<line x1="575.04" y1="432.37" x2="575.04" y2="459.15" stroke="#22c55e" stroke-width="1"/>
<rect x="571.04" y="438.42" width="8.00" height="17.27" fill="#22c55e"/>
<line x1="589.01" y1="428.92" x2="589.01" y2="458.28" stroke="#22c55e" stroke-width="1"/>
<rect x="585.01" y="435.83" width="8.00" height="2.59" fill="#22c55e"/>
<line x1="602.99" y1="415.10" x2="602.99" y2="447.05" stroke="#ef4444" stroke-width="1"/>
<rect x="598.99" y="432.37" width="8.00" height="4.32" fill="#ef4444"/>
<line x1="616.96" y1="424.60" x2="616.96" y2="455.69" stroke="#22c55e" stroke-width="1"/>
<rect x="612.96" y="438.42" width="8.00" height="16.41" fill="#22c55e"/>
<line x1="630.93" y1="434.96" x2="630.93" y2="458.28" stroke="#ef4444" stroke-width="1"/>
<rect x="626.93" y="438.42" width="8.00" height="16.41" fill="#ef4444"/>
<line x1="644.91" y1="451.37" x2="644.91" y2="471.24" stroke="#22c55e" stroke-width="1"/>
<rect x="640.91" y="454.83" width="8.00" height="3.45" fill="#22c55e"/>
<line x1="658.88" y1="419.42" x2="658.88" y2="449.65" stroke="#22c55e" stroke-width="1"/>
<rect x="654.88" y="428.92" width="8.00" height="19.00" fill="#22c55e"/>
<line x1="672.85" y1="420.28" x2="672.85" y2="441.01" stroke="#ef4444" stroke-width="1"/>
<rect x="668.85" y="428.92" width="8.00" height="6.91" fill="#ef4444"/>
<line x1="686.83" y1="425.46" x2="686.83" y2="441.87" stroke="#22c55e" stroke-width="1"/>
<rect x="682.83" y="428.92" width="8.00" height="6.91" fill="#22c55e"/>
<line x1="700.80" y1="416.83" x2="700.80" y2="439.28" stroke="#ef4444" stroke-width="1"/>
<rect x="696.80" y="434.10" width="8.00" height="3.45" fill="#ef4444"/>
<line x1="714.77" y1="431.51" x2="714.77" y2="447.06" stroke="#ef4444" stroke-width="1"/>
<rect x="710.77" y="432.37" width="8.00" height="3.45" fill="#ef4444"/>
<line x1="728.75" y1="425.46" x2="728.75" y2="442.74" stroke="#22c55e" stroke-width="1"/>
<rect x="724.75" y="433.24" width="8.00" height="2.59" fill="#22c55e"/>
<line x1="742.72" y1="415.10" x2="742.72" y2="435.83" stroke="#22c55e" stroke-width="1"/>
<rect x="738.72" y="418.55" width="8.00" height="10.36" fill="#22c55e"/>
<line x1="756.69" y1="393.51" x2="756.69" y2="418.55" stroke="#22c55e" stroke-width="1"/>
<rect x="752.69" y="400.42" width="8.00" height="14.68" fill="#22c55e"/>
<line x1="770.67" y1="402.14" x2="770.67" y2="447.05" stroke="#ef4444" stroke-width="1"/>
<rect x="766.67" y="402.14" width="8.00" height="37.14" fill="#ef4444"/>
<line x1="784.64" y1="435.83" x2="784.64" y2="456.56" stroke="#ef4444" stroke-width="1"/>
<rect x="780.64" y="441.87" width="8.00" height="1.73" fill="#ef4444"/>
<line x1="798.61" y1="402.14" x2="798.61" y2="441.87" stroke="#22c55e" stroke-width="1"/>
<rect x="794.61" y="407.32" width="8.00" height="28.50" fill="#22c55e"/>
<line x1="812.59" y1="409.05" x2="812.59" y2="428.05" stroke="#ef4444" stroke-width="1"/>
<rect x="808.59" y="414.23" width="8.00" height="7.77" fill="#ef4444"/>
<line x1="826.56" y1="420.28" x2="826.56" y2="446.19" stroke="#ef4444" stroke-width="1"/>
<rect x="822.56" y="421.14" width="8.00" height="17.27" fill="#ef4444"/>
<line x1="840.53" y1="440.15" x2="840.53" y2="453.10" stroke="#22c55e" stroke-width="1"/>
<rect x="836.53" y="440.15" width="8.00" height="1.73" fill="#22c55e"/>
<line x1="854.51" y1="436.69" x2="854.51" y2="457.42" stroke="#ef4444" stroke-width="1"/>
<rect x="850.51" y="442.74" width="8.00" height="8.64" fill="#ef4444"/>
<line x1="868.48" y1="453.96" x2="868.48" y2="470.37" stroke="#22c55e" stroke-width="1"/>
<rect x="864.48" y="458.28" width="8.00" height="3.45" fill="#22c55e"/>
<line x1="882.45" y1="457.42" x2="882.45" y2="479.87" stroke="#ef4444" stroke-width="1"/>
<rect x="878.45" y="458.28" width="8.00" height="21.59" fill="#ef4444"/>
<line x1="896.43" y1="474.69" x2="896.43" y2="495.42" stroke="#ef4444" stroke-width="1"/>
<rect x="892.43" y="479.87" width="8.00" height="2.59" fill="#ef4444"/>
<line x1="910.40" y1="455.69" x2="910.40" y2="482.47" stroke="#22c55e" stroke-width="1"/>
<rect x="906.40" y="458.28" width="8.00" height="21.59" fill="#22c55e"/>
<line x1="924.37" y1="461.74" x2="924.37" y2="484.19" stroke="#22c55e" stroke-width="1"/>
<rect x="920.37" y="465.19" width="8.00" height="6.05" fill="#22c55e"/>
<line x1="938.35" y1="452.24" x2="938.35" y2="466.92" stroke="#22c55e" stroke-width="1"/>
<rect x="934.35" y="464.33" width="8.00" height="1.20" fill="#22c55e"/>
<line x1="952.32" y1="453.96" x2="952.32" y2="472.10" stroke="#ef4444" stroke-width="1"/>
<rect x="948.32" y="458.28" width="8.00" height="12.96" fill="#ef4444"/>
<line x1="966.29" y1="460.87" x2="966.29" y2="472.10" stroke="#22c55e" stroke-width="1"/>
<rect x="962.29" y="462.60" width="8.00" height="6.05" fill="#22c55e"/>
<line x1="980.27" y1="466.92" x2="980.27" y2="485.06" stroke="#ef4444" stroke-width="1"/>
<rect x="976.27" y="473.83" width="8.00" height="3.45" fill="#ef4444"/>
<line x1="994.24" y1="466.06" x2="994.24" y2="488.51" stroke="#ef4444" stroke-width="1"/>
<rect x="990.24" y="466.92" width="8.00" height="20.73" fill="#ef4444"/>
<line x1="1008.21" y1="472.10" x2="1008.21" y2="489.38" stroke="#ef4444" stroke-width="1"/>
<rect x="1004.21" y="474.69" width="8.00" height="8.64" fill="#ef4444"/>
<line x1="1022.19" y1="488.51" x2="1022.19" y2="507.51" stroke="#22c55e" stroke-width="1"/>
<rect x="1018.19" y="494.56" width="8.00" height="3.45" fill="#22c55e"/>
<line x1="1036.16" y1="489.38" x2="1036.16" y2="512.69" stroke="#ef4444" stroke-width="1"/>
<rect x="1032.16" y="499.74" width="8.00" height="3.45" fill="#ef4444"/>
<line x1="1050.13" y1="486.78" x2="1050.13" y2="517.01" stroke="#22c55e" stroke-width="1"/>
<rect x="1046.13" y="497.15" width="8.00" height="12.09" fill="#22c55e"/>
<line x1="1064.11" y1="487.65" x2="1064.11" y2="520.47" stroke="#ef4444" stroke-width="1"/>
<rect x="1060.11" y="488.51" width="8.00" height="28.50" fill="#ef4444"/>
<line x1="1078.08" y1="518.74" x2="1078.08" y2="549.83" stroke="#ef4444" stroke-width="1"/>
<rect x="1074.08" y="522.20" width="8.00" height="20.73" fill="#ef4444"/>
<line x1="1092.05" y1="526.51" x2="1092.05" y2="548.97" stroke="#22c55e" stroke-width="1"/>
<rect x="1088.05" y="529.97" width="8.00" height="8.64" fill="#22c55e"/>
<line x1="1106.03" y1="528.24" x2="1106.03" y2="567.11" stroke="#ef4444" stroke-width="1"/>
<rect x="1102.03" y="536.88" width="8.00" height="19.86" fill="#ef4444"/>
<line x1="1120.00" y1="543.79" x2="1120.00" y2="564.52" stroke="#ef4444" stroke-width="1"/>
<rect x="1116.00" y="552.42" width="8.00" height="1.20" fill="#ef4444"/>
<polyline points="72.00,466.18 85.97,464.51 99.95,461.29 113.92,458.29 127.89,455.98 141.87,452.51 155.84,442.09 169.81,431.60 183.79,425.05 197.76,419.78 211.73,414.27 225.71,407.20 239.68,401.37 253.65,395.85 267.63,391.51 281.60,387.75 295.57,385.18 309.55,383.09 323.52,381.61 337.49,383.57 351.47,385.34 365.44,389.90 379.41,396.66 393.39,403.10 407.36,410.42 421.33,418.18 435.31,427.76 449.28,435.19 463.25,441.91 477.23,446.02 491.20,447.93 505.17,449.33 519.15,449.60 533.12,451.17 547.09,452.51 561.07,453.30 575.04,451.89 589.01,450.36 602.99,449.05 616.96,448.04 630.93,448.69 644.91,449.27 658.88,447.33 672.85,446.24 686.83,444.59 700.80,443.92 714.77,443.15 728.75,442.20 742.72,439.95 756.69,436.19 770.67,436.48 784.64,437.16 798.61,434.32 812.59,433.15 826.56,433.65 840.53,434.27 854.51,435.90 868.48,438.03 882.45,442.01 896.43,445.87 910.40,447.05 924.37,448.78 938.35,450.26 952.32,452.26 966.29,453.24 980.27,455.53 994.24,458.59 1008.21,460.95 1022.19,464.15 1036.16,467.87 1050.13,470.65 1064.11,475.07 1078.08,481.53 1092.05,486.14 1106.03,492.87 1120.00,498.62" fill="none" stroke="#f59e0b" stroke-width="2"/>
<polyline points="72.00,440.95 85.97,441.25 99.95,440.83 113.92,440.40 127.89,440.15 141.87,439.34 155.84,435.57 169.81,431.51 183.79,428.81 197.76,426.49 211.73,423.96 225.71,420.67 239.68,417.74 253.65,414.83 267.63,412.30 281.60,409.94 295.57,408.00 309.55,406.25 323.52,404.73 337.49,404.63 351.47,404.53 365.44,405.66 379.41,407.83 393.39,410.04 407.36,412.78 421.33,415.89 435.31,419.92 449.28,423.29 463.25,426.52 477.23,428.82 491.20,430.28 505.17,431.54 519.15,432.36 533.12,433.68 547.09,434.91 561.07,435.93 575.04,436.03 589.01,436.02 602.99,436.05 616.96,436.14 630.93,436.87 644.91,437.58 658.88,437.24 672.85,437.18 686.83,436.86 700.80,436.89 714.77,436.84 728.75,436.70 742.72,435.99 756.69,434.60 770.67,434.78 784.64,435.13 798.61,434.04 812.59,433.56 826.56,433.75 840.53,434.00 854.51,434.69 868.48,435.61 882.45,437.35 896.43,439.12 910.40,439.87 924.37,440.86 938.35,441.78 952.32,442.94 966.29,443.71 980.27,445.02 994.24,446.70 1008.21,448.13 1022.19,449.95 1036.16,452.04 1050.13,453.81 1064.11,456.29 1078.08,459.69 1092.05,462.44 1106.03,466.14 1120.00,469.56" fill="none" stroke="#38bdf8" stroke-width="2"/>
<line x1="72" y1="436.48" x2="1120" y2="436.48" stroke="#22d3ee" stroke-width="1.5"/>
<text x="78" y="431.48" fill="#22d3ee" font-family="sans-serif" font-size="11">Pullback entry 12.01</text>
<line x1="72" y1="476.42" x2="1120" y2="476.42" stroke="#94a3b8" stroke-width="1.5" stroke-dasharray="6 4"/>
<text x="78" y="471.42" fill="#94a3b8" font-family="sans-serif" font-size="11">Swing low 11.72</text>
<line x1="72" y1="514.83" x2="1120" y2="514.83" stroke="#fb7185" stroke-width="1.5"/>
<text x="78" y="509.83" fill="#fb7185" font-family="sans-serif" font-size="11">Stop 11.44</text>
<line x1="72" y1="277.27" x2="1120" y2="277.27" stroke="#4ade80" stroke-width="1.5"/>
<text x="78" y="272.27" fill="#4ade80" font-family="sans-serif" font-size="11">TP1 13.15</text>
<line x1="72" y1="118.89" x2="1120" y2="118.89" stroke="#c084fc" stroke-width="1.5"/>
<text x="78" y="113.89" fill="#c084fc" font-family="sans-serif" font-size="11">TP2 14.29</text>
<line x1="770.67" y1="92" x2="770.67" y2="594" stroke="#e2e8f0" stroke-width="1" stroke-dasharray="3 4"/>
<circle cx="770.67" cy="439.28" r="5" fill="#f8fafc"/>
<text x="777.67" y="107" fill="#e2e8f0" font-family="sans-serif" font-size="11">Signal</text>
<polygon points="784.64,425.65 776.64,441.65 792.64,441.65" fill="#22d3ee"/>
<text x="793.64" y="439.65" fill="#22d3ee" font-family="sans-serif" font-size="11">Entry</text>
<polygon points="1050.13,525.63 1042.13,509.63 1058.13,509.63" fill="#f8fafc"/>
<text x="1059.13" y="507.63" fill="#f8fafc" font-family="sans-serif" font-size="11">STOP</text>
<text x="72.00" y="622" text-anchor="middle" fill="#64748b" font-family="monospace" font-size="11">2017-07-12</text>
<text x="281.60" y="622" text-anchor="middle" fill="#64748b" font-family="monospace" font-size="11">2017-08-02</text>
<text x="491.20" y="622" text-anchor="middle" fill="#64748b" font-family="monospace" font-size="11">2017-08-23</text>
<text x="700.80" y="622" text-anchor="middle" fill="#64748b" font-family="monospace" font-size="11">2017-09-14</text>
<text x="910.40" y="622" text-anchor="middle" fill="#64748b" font-family="monospace" font-size="11">2017-10-05</text>
<text x="1120.00" y="622" text-anchor="middle" fill="#64748b" font-family="monospace" font-size="11">2017-10-26</text>
<line x1="72" y1="632" x2="96" y2="632" stroke="#f59e0b" stroke-width="2"/><text x="102" y="636" fill="#94a3b8" font-family="sans-serif" font-size="11">EMA20</text>
<line x1="176" y1="632" x2="200" y2="632" stroke="#38bdf8" stroke-width="2"/><text x="206" y="636" fill="#94a3b8" font-family="sans-serif" font-size="11">EMA50</text>
<text x="1120" y="654" text-anchor="end" fill="#475569" font-family="sans-serif" font-size="11">Retrospective holdout · Out-of-sample · Not forward validation</text>
</svg>