<svg xmlns="http://www.w3.org/2000/svg" width="1200" height="680" viewBox="0 0 1200 680" role="img" data-signal-price="112.839996" data-ema20="112.937684" data-ema50="110.696266" data-pullback-entry="112.937684" data-swing-low="110.477671" data-stop="107.381213" data-tp1="124.220032" data-tp2="135.445912" data-risk-percent="4.967461" data-signal-date="2026-07-23">
<title>CPT latest replay signal evidence</title>
<desc>Completed daily candles through 2026-07-23 with frozen pullback strategy levels.</desc>
<rect width="1200" height="680" fill="#020617"/>
<text x="72" y="34" fill="#f8fafc" font-family="sans-serif" font-size="22" font-weight="600">CPT · Camden Property Trust · Replay signal</text>
<text x="72" y="62" fill="#94a3b8" font-family="sans-serif" font-size="14">Signal 2026-07-23 · Regime score 90 · The benchmark regime is risk-on based on 50/200-day EMA alignment.</text>
<line x1="72" y1="594.00" x2="1120" y2="594.00" stroke="#1e293b" stroke-width="1"/>
<text x="1130" y="598.00" fill="#64748b" font-family="monospace" font-size="11">96.59</text>
<line x1="72" y1="493.60" x2="1120" y2="493.60" stroke="#1e293b" stroke-width="1"/>
<text x="1130" y="497.60" fill="#64748b" font-family="monospace" font-size="11">104.80</text>
<line x1="72" y1="393.20" x2="1120" y2="393.20" stroke="#1e293b" stroke-width="1"/>
<text x="1130" y="397.20" fill="#64748b" font-family="monospace" font-size="11">113.01</text>
<line x1="72" y1="292.80" x2="1120" y2="292.80" stroke="#1e293b" stroke-width="1"/>
<text x="1130" y="296.80" fill="#64748b" font-family="monospace" font-size="11">121.22</text>
<line x1="72" y1="192.40" x2="1120" y2="192.40" stroke="#1e293b" stroke-width="1"/>
<text x="1130" y="196.40" fill="#64748b" font-family="monospace" font-size="11">129.43</text>
<line x1="72" y1="92.00" x2="1120" y2="92.00" stroke="#1e293b" stroke-width="1"/>
<text x="1130" y="96.00" fill="#64748b" font-family="monospace" font-size="11">137.65</text>
<line x1="72.00" y1="537.55" x2="72.00" y2="562.87" stroke="#22c55e" stroke-width="1"/>
<rect x="68.00" y="541.79" width="8.00" height="7.27" fill="#22c55e"/>
<line x1="87.19" y1="539.97" x2="87.19" y2="557.78" stroke="#ef4444" stroke-width="1"/>
<rect x="83.19" y="543.00" width="8.00" height="3.63" fill="#ef4444"/>
<line x1="102.38" y1="539.85" x2="102.38" y2="567.11" stroke="#ef4444" stroke-width="1"/>
<rect x="98.38" y="548.93" width="8.00" height="12.24" fill="#ef4444"/>
<line x1="117.57" y1="516.71" x2="117.57" y2="557.05" stroke="#22c55e" stroke-width="1"/>
<rect x="113.57" y="522.16" width="8.00" height="34.89" fill="#22c55e"/>
<line x1="132.75" y1="503.38" x2="132.75" y2="532.10" stroke="#22c55e" stroke-width="1"/>
<rect x="128.75" y="505.68" width="8.00" height="21.69" fill="#22c55e"/>
<line x1="147.94" y1="506.41" x2="147.94" y2="534.40" stroke="#ef4444" stroke-width="1"/>
<rect x="143.94" y="508.47" width="8.00" height="24.84" fill="#ef4444"/>
<line x1="163.13" y1="527.01" x2="163.13" y2="550.27" stroke="#ef4444" stroke-width="1"/>
<rect x="159.13" y="528.82" width="8.00" height="16.60" fill="#ef4444"/>
<line x1="178.32" y1="527.73" x2="178.32" y2="554.63" stroke="#22c55e" stroke-width="1"/>
<rect x="174.32" y="533.91" width="8.00" height="20.72" fill="#22c55e"/>
<line x1="193.51" y1="527.98" x2="193.51" y2="547.84" stroke="#ef4444" stroke-width="1"/>
<rect x="189.51" y="533.79" width="8.00" height="8.36" fill="#ef4444"/>
<line x1="208.70" y1="534.40" x2="208.70" y2="550.03" stroke="#ef4444" stroke-width="1"/>
<rect x="204.70" y="542.03" width="8.00" height="1.94" fill="#ef4444"/>
<line x1="223.88" y1="488.72" x2="223.88" y2="540.21" stroke="#22c55e" stroke-width="1"/>
<rect x="219.88" y="491.51" width="8.00" height="42.40" fill="#22c55e"/>
<line x1="239.07" y1="479.76" x2="239.07" y2="502.53" stroke="#ef4444" stroke-width="1"/>
<rect x="235.07" y="496.24" width="8.00" height="2.67" fill="#ef4444"/>
<line x1="254.26" y1="484.85" x2="254.26" y2="509.08" stroke="#ef4444" stroke-width="1"/>
<rect x="250.26" y="490.06" width="8.00" height="12.48" fill="#ef4444"/>
<line x1="269.45" y1="486.91" x2="269.45" y2="529.43" stroke="#ef4444" stroke-width="1"/>
<rect x="265.45" y="489.94" width="8.00" height="19.50" fill="#ef4444"/>
<line x1="284.64" y1="490.18" x2="284.64" y2="520.59" stroke="#22c55e" stroke-width="1"/>
<rect x="280.64" y="510.29" width="8.00" height="5.45" fill="#22c55e"/>
<line x1="299.83" y1="493.57" x2="299.83" y2="518.65" stroke="#22c55e" stroke-width="1"/>
<rect x="295.83" y="506.05" width="8.00" height="3.88" fill="#22c55e"/>
<line x1="315.01" y1="492.12" x2="315.01" y2="508.23" stroke="#ef4444" stroke-width="1"/>
<rect x="311.01" y="501.81" width="8.00" height="3.27" fill="#ef4444"/>
<line x1="330.20" y1="501.93" x2="330.20" y2="515.98" stroke="#ef4444" stroke-width="1"/>
<rect x="326.20" y="513.92" width="8.00" height="1.20" fill="#ef4444"/>
<line x1="345.39" y1="508.71" x2="345.39" y2="526.04" stroke="#ef4444" stroke-width="1"/>
<rect x="341.39" y="514.17" width="8.00" height="3.51" fill="#ef4444"/>
<line x1="360.58" y1="497.33" x2="360.58" y2="513.32" stroke="#22c55e" stroke-width="1"/>
<rect x="356.58" y="503.75" width="8.00" height="3.27" fill="#22c55e"/>
<line x1="375.77" y1="496.96" x2="375.77" y2="514.89" stroke="#ef4444" stroke-width="1"/>
<rect x="371.77" y="498.17" width="8.00" height="1.82" fill="#ef4444"/>
<line x1="390.96" y1="496.24" x2="390.96" y2="514.53" stroke="#22c55e" stroke-width="1"/>
<rect x="386.96" y="498.54" width="8.00" height="9.09" fill="#22c55e"/>
<line x1="406.14" y1="503.02" x2="406.14" y2="523.01" stroke="#ef4444" stroke-width="1"/>
<rect x="402.14" y="506.41" width="8.00" height="8.60" fill="#ef4444"/>
<line x1="421.33" y1="507.14" x2="421.33" y2="532.94" stroke="#ef4444" stroke-width="1"/>
<rect x="417.33" y="512.35" width="8.00" height="19.63" fill="#ef4444"/>
<line x1="436.52" y1="506.05" x2="436.52" y2="529.67" stroke="#22c55e" stroke-width="1"/>
<rect x="432.52" y="507.50" width="8.00" height="20.23" fill="#22c55e"/>
<line x1="451.71" y1="497.93" x2="451.71" y2="518.53" stroke="#22c55e" stroke-width="1"/>
<rect x="447.71" y="502.05" width="8.00" height="6.78" fill="#22c55e"/>
<line x1="466.90" y1="475.03" x2="466.90" y2="508.71" stroke="#22c55e" stroke-width="1"/>
<rect x="462.90" y="487.15" width="8.00" height="11.75" fill="#22c55e"/>
<line x1="482.09" y1="483.88" x2="482.09" y2="513.80" stroke="#22c55e" stroke-width="1"/>
<rect x="478.09" y="488.60" width="8.00" height="1.94" fill="#22c55e"/>
<line x1="497.28" y1="466.43" x2="497.28" y2="491.27" stroke="#22c55e" stroke-width="1"/>
<rect x="493.28" y="472.85" width="8.00" height="12.24" fill="#22c55e"/>
<line x1="512.46" y1="460.62" x2="512.46" y2="478.43" stroke="#ef4444" stroke-width="1"/>
<rect x="508.46" y="465.22" width="8.00" height="4.36" fill="#ef4444"/>
<line x1="527.65" y1="452.98" x2="527.65" y2="468.01" stroke="#22c55e" stroke-width="1"/>
<rect x="523.65" y="465.34" width="8.00" height="1.20" fill="#22c55e"/>
<line x1="542.84" y1="456.74" x2="542.84" y2="472.85" stroke="#ef4444" stroke-width="1"/>
<rect x="538.84" y="465.58" width="8.00" height="1.20" fill="#ef4444"/>
<line x1="558.03" y1="467.64" x2="558.03" y2="490.30" stroke="#ef4444" stroke-width="1"/>
<rect x="554.03" y="471.28" width="8.00" height="12.60" fill="#ef4444"/>
<line x1="573.22" y1="464.62" x2="573.22" y2="493.69" stroke="#22c55e" stroke-width="1"/>
<rect x="569.22" y="489.69" width="8.00" height="1.20" fill="#22c55e"/>
<line x1="588.41" y1="485.09" x2="588.41" y2="503.14" stroke="#ef4444" stroke-width="1"/>
<rect x="584.41" y="487.63" width="8.00" height="1.82" fill="#ef4444"/>
<line x1="603.59" y1="450.08" x2="603.59" y2="495.14" stroke="#22c55e" stroke-width="1"/>
<rect x="599.59" y="455.65" width="8.00" height="38.28" fill="#22c55e"/>
<line x1="618.78" y1="417.49" x2="618.78" y2="455.04" stroke="#22c55e" stroke-width="1"/>
<rect x="614.78" y="417.85" width="8.00" height="24.35" fill="#22c55e"/>
<line x1="633.97" y1="398.95" x2="633.97" y2="428.27" stroke="#22c55e" stroke-width="1"/>
<rect x="629.97" y="410.70" width="8.00" height="12.11" fill="#22c55e"/>
<line x1="649.16" y1="397.01" x2="649.16" y2="416.52" stroke="#22c55e" stroke-width="1"/>
<rect x="645.16" y="406.22" width="8.00" height="3.15" fill="#22c55e"/>
<line x1="664.35" y1="375.21" x2="664.35" y2="408.04" stroke="#22c55e" stroke-width="1"/>
<rect x="660.35" y="376.78" width="8.00" height="23.87" fill="#22c55e"/>
<line x1="679.54" y1="362.61" x2="679.54" y2="390.23" stroke="#22c55e" stroke-width="1"/>
<rect x="675.54" y="377.87" width="8.00" height="7.87" fill="#22c55e"/>
<line x1="694.72" y1="362.37" x2="694.72" y2="394.35" stroke="#ef4444" stroke-width="1"/>
<rect x="690.72" y="377.87" width="8.00" height="10.54" fill="#ef4444"/>
<line x1="709.91" y1="367.58" x2="709.91" y2="389.02" stroke="#22c55e" stroke-width="1"/>
<rect x="705.91" y="381.87" width="8.00" height="3.88" fill="#22c55e"/>
<line x1="725.10" y1="375.81" x2="725.10" y2="402.83" stroke="#ef4444" stroke-width="1"/>
<rect x="721.10" y="385.63" width="8.00" height="14.17" fill="#ef4444"/>
<line x1="740.29" y1="389.02" x2="740.29" y2="423.30" stroke="#ef4444" stroke-width="1"/>
<rect x="736.29" y="399.92" width="8.00" height="13.69" fill="#ef4444"/>
<line x1="755.48" y1="412.52" x2="755.48" y2="459.89" stroke="#ef4444" stroke-width="1"/>
<rect x="751.48" y="415.67" width="8.00" height="34.41" fill="#ef4444"/>
<line x1="770.67" y1="426.94" x2="770.67" y2="455.53" stroke="#ef4444" stroke-width="1"/>
<rect x="766.67" y="426.94" width="8.00" height="27.50" fill="#ef4444"/>
<line x1="785.86" y1="442.45" x2="785.86" y2="466.80" stroke="#ef4444" stroke-width="1"/>
<rect x="781.86" y="442.45" width="8.00" height="12.11" fill="#ef4444"/>
<line x1="801.04" y1="434.69" x2="801.04" y2="452.62" stroke="#22c55e" stroke-width="1"/>
<rect x="797.04" y="436.15" width="8.00" height="8.96" fill="#22c55e"/>
<line x1="816.23" y1="418.58" x2="816.23" y2="438.93" stroke="#22c55e" stroke-width="1"/>
<rect x="812.23" y="426.94" width="8.00" height="8.72" fill="#22c55e"/>
<line x1="831.42" y1="395.80" x2="831.42" y2="424.15" stroke="#22c55e" stroke-width="1"/>
<rect x="827.42" y="398.71" width="8.00" height="25.44" fill="#22c55e"/>
<line x1="846.61" y1="365.03" x2="846.61" y2="390.96" stroke="#22c55e" stroke-width="1"/>
<rect x="842.61" y="365.76" width="8.00" height="24.23" fill="#22c55e"/>
<line x1="861.80" y1="360.43" x2="861.80" y2="377.02" stroke="#22c55e" stroke-width="1"/>
<rect x="857.80" y="360.55" width="8.00" height="9.45" fill="#22c55e"/>
<line x1="876.99" y1="361.16" x2="876.99" y2="382.56" stroke="#ef4444" stroke-width="1"/>
<rect x="872.99" y="371.80" width="8.00" height="3.30" fill="#ef4444"/>
<line x1="892.17" y1="337.56" x2="892.17" y2="370.08" stroke="#22c55e" stroke-width="1"/>
<rect x="888.17" y="360.79" width="8.00" height="9.29" fill="#22c55e"/>
<line x1="907.36" y1="340.38" x2="907.36" y2="365.32" stroke="#22c55e" stroke-width="1"/>
<rect x="903.36" y="341.35" width="8.00" height="15.65" fill="#22c55e"/>
<line x1="922.55" y1="342.58" x2="922.55" y2="355.17" stroke="#22c55e" stroke-width="1"/>
<rect x="918.55" y="345.02" width="8.00" height="1.20" fill="#22c55e"/>
<line x1="937.74" y1="310.06" x2="937.74" y2="338.54" stroke="#ef4444" stroke-width="1"/>
<rect x="933.74" y="332.18" width="8.00" height="5.13" fill="#ef4444"/>
<line x1="952.93" y1="344.41" x2="952.93" y2="382.56" stroke="#ef4444" stroke-width="1"/>
<rect x="948.93" y="344.41" width="8.00" height="36.92" fill="#ef4444"/>
<line x1="968.12" y1="371.31" x2="968.12" y2="392.09" stroke="#ef4444" stroke-width="1"/>
<rect x="964.12" y="375.71" width="8.00" height="14.06" fill="#ef4444"/>
<line x1="983.30" y1="379.13" x2="983.30" y2="398.69" stroke="#ef4444" stroke-width="1"/>
<rect x="979.30" y="383.17" width="8.00" height="10.64" fill="#ef4444"/>
<line x1="998.49" y1="373.75" x2="998.49" y2="396.25" stroke="#22c55e" stroke-width="1"/>
<rect x="994.49" y="378.77" width="8.00" height="7.82" fill="#22c55e"/>
<line x1="1013.68" y1="375.95" x2="1013.68" y2="395.88" stroke="#ef4444" stroke-width="1"/>
<rect x="1009.68" y="378.15" width="8.00" height="15.40" fill="#ef4444"/>
<line x1="1028.87" y1="384.76" x2="1028.87" y2="412.02" stroke="#ef4444" stroke-width="1"/>
<rect x="1024.87" y="385.37" width="8.00" height="21.76" fill="#ef4444"/>
<line x1="1044.06" y1="370.57" x2="1044.06" y2="403.22" stroke="#22c55e" stroke-width="1"/>
<rect x="1040.06" y="374.12" width="8.00" height="22.86" fill="#22c55e"/>
<line x1="1059.25" y1="361.04" x2="1059.25" y2="406.27" stroke="#ef4444" stroke-width="1"/>
<rect x="1055.25" y="368.86" width="8.00" height="24.82" fill="#ef4444"/>
<line x1="1074.43" y1="383.29" x2="1074.43" y2="399.55" stroke="#ef4444" stroke-width="1"/>
<rect x="1070.43" y="390.75" width="8.00" height="4.28" fill="#ef4444"/>
<line x1="1089.62" y1="393.93" x2="1089.62" y2="407.01" stroke="#ef4444" stroke-width="1"/>
<rect x="1085.62" y="397.10" width="8.00" height="7.34" fill="#ef4444"/>
<line x1="1104.81" y1="399.43" x2="1104.81" y2="411.78" stroke="#ef4444" stroke-width="1"/>
<rect x="1100.81" y="401.63" width="8.00" height="3.79" fill="#ef4444"/>
<line x1="1120.00" y1="383.17" x2="1120.00" y2="404.81" stroke="#22c55e" stroke-width="1"/>
<rect x="1116.00" y="395.27" width="8.00" height="9.54" fill="#22c55e"/>
<polyline points="72.00,557.37 87.19,556.35 102.38,556.81 117.57,553.51 132.75,548.95 147.94,547.46 163.13,547.27 178.32,546.00 193.51,545.63 208.70,545.47 223.88,540.33 239.07,536.39 254.26,533.16 269.45,530.90 284.64,528.94 299.83,526.76 315.01,524.70 330.20,523.68 345.39,523.11 360.58,521.26 375.77,519.24 390.96,517.27 406.14,517.05 421.33,518.47 436.52,517.43 451.71,515.96 466.90,513.22 482.09,510.88 497.28,507.25 512.46,503.67 527.65,500.02 542.84,496.79 558.03,495.56 573.22,495.01 588.41,494.48 603.59,490.78 618.78,483.83 633.97,476.87 649.16,470.14 664.35,461.25 679.54,453.31 694.72,447.13 709.91,440.91 725.10,437.00 740.29,434.77 755.48,436.23 770.67,437.96 785.86,439.54 801.04,439.22 816.23,438.05 831.42,434.30 846.61,427.78 861.80,421.37 876.99,416.97 892.17,411.62 907.36,404.92 922.55,399.22 937.74,393.32 952.93,392.18 968.12,391.95 983.30,392.13 998.49,390.86 1013.68,391.11 1028.87,392.64 1044.06,390.87 1059.25,391.14 1074.43,391.51 1089.62,392.74 1104.81,393.95 1120.00,394.08" fill="none" stroke="#f59e0b" stroke-width="2"/>
<polyline points="72.00,537.93 87.19,538.27 102.38,539.17 117.57,538.50 132.75,537.22 147.94,537.06 163.13,537.39 178.32,537.25 193.51,537.45 208.70,537.70 223.88,535.89 239.07,534.44 254.26,533.19 269.45,532.26 284.64,531.40 299.83,530.40 315.01,529.41 330.20,528.81 345.39,528.37 360.58,527.40 375.77,526.33 390.96,525.24 406.14,524.84 421.33,525.12 436.52,524.43 451.71,523.55 466.90,522.12 482.09,520.81 497.28,518.93 512.46,516.99 527.65,514.97 542.84,513.05 558.03,511.91 573.22,511.04 588.41,510.19 603.59,508.05 618.78,504.52 633.97,500.84 649.16,497.13 664.35,492.41 679.54,487.92 694.72,484.01 709.91,480.01 725.10,476.86 740.29,474.38 755.48,473.43 770.67,472.68 785.86,471.97 801.04,470.57 816.23,468.86 831.42,466.11 846.61,462.17 861.80,458.19 876.99,454.93 892.17,451.24 907.36,446.93 922.55,442.93 937.74,438.79 952.93,436.54 968.12,434.70 983.30,433.10 998.49,430.97 1013.68,429.50 1028.87,428.62 1044.06,426.49 1059.25,425.20 1074.43,424.02 1089.62,423.25 1104.81,422.55 1120.00,421.48" fill="none" stroke="#38bdf8" stroke-width="2"/>
<line x1="72" y1="394.08" x2="1120" y2="394.08" stroke="#22d3ee" stroke-width="1.5"/>
<text x="78" y="389.08" fill="#22d3ee" font-family="sans-serif" font-size="11">Pullback entry 112.94</text>
<line x1="72" y1="424.15" x2="1120" y2="424.15" stroke="#94a3b8" stroke-width="1.5" stroke-dasharray="6 4"/>
<text x="78" y="419.15" fill="#94a3b8" font-family="sans-serif" font-size="11">Swing low 110.48</text>
<line x1="72" y1="462.01" x2="1120" y2="462.01" stroke="#fb7185" stroke-width="1.5"/>
<text x="78" y="457.01" fill="#fb7185" font-family="sans-serif" font-size="11">Stop 107.38</text>
<line x1="72" y1="256.14" x2="1120" y2="256.14" stroke="#4ade80" stroke-width="1.5"/>
<text x="78" y="251.14" fill="#4ade80" font-family="sans-serif" font-size="11">TP1 124.22</text>
<line x1="72" y1="118.89" x2="1120" y2="118.89" stroke="#c084fc" stroke-width="1.5"/>
<text x="78" y="113.89" fill="#c084fc" font-family="sans-serif" font-size="11">TP2 135.45</text>
<line x1="1120.00" y1="92" x2="1120.00" y2="594" stroke="#f8fafc" stroke-width="1" stroke-dasharray="3 4"/>
<circle cx="1120.00" cy="395.27" r="5" fill="#f8fafc"/>
<text x="1112.00" y="107" text-anchor="end" fill="#f8fafc" font-family="sans-serif" font-size="11">Signal</text>
<text x="72.00" y="622" text-anchor="middle" fill="#64748b" font-family="monospace" font-size="11">2026-04-14</text>
<text x="284.64" y="622" text-anchor="middle" fill="#64748b" font-family="monospace" font-size="11">2026-05-04</text>
<text x="497.28" y="622" text-anchor="middle" fill="#64748b" font-family="monospace" font-size="11">2026-05-22</text>
<text x="694.72" y="622" text-anchor="middle" fill="#64748b" font-family="monospace" font-size="11">2026-06-11</text>
<text x="907.36" y="622" text-anchor="middle" fill="#64748b" font-family="monospace" font-size="11">2026-07-02</text>
<text x="1120.00" y="622" text-anchor="middle" fill="#64748b" font-family="monospace" font-size="11">2026-07-23</text>
<line x1="72" y1="632" x2="96" y2="632" stroke="#f59e0b" stroke-width="2"/>
<text x="102" y="636" fill="#94a3b8" font-family="sans-serif" font-size="11">EMA20</text>
<line x1="176" y1="632" x2="200" y2="632" stroke="#38bdf8" stroke-width="2"/>
<text x="206" y="636" fill="#94a3b8" font-family="sans-serif" font-size="11">EMA50</text>
<text x="1120" y="654" text-anchor="end" fill="#475569" font-family="sans-serif" font-size="11">Replay evidence · Frozen strategy · Paper trading only</text>
</svg>