<svg xmlns="http://www.w3.org/2000/svg" width="1200" height="680" viewBox="0 0 1200 680" role="img" data-signal-price="112.790001" data-ema20="111.073387" data-ema50="109.753088" data-pullback-entry="111.073387" data-swing-low="109.410004" data-stop="106.142866" data-tp1="121.101041" data-tp2="131.073158" data-risk-percent="4.486733" data-signal-date="2026-07-23">
<title>ED latest replay signal evidence</title>
<desc>Completed daily candles through 2026-07-23 with frozen pullback strategy levels.</desc>
<rect width="1200" height="680" fill="#020617"/>
<text x="72" y="34" fill="#f8fafc" font-family="sans-serif" font-size="22" font-weight="600">ED · Consolidated Edison · Replay signal</text>
<text x="72" y="62" fill="#94a3b8" font-family="sans-serif" font-size="14">Signal 2026-07-23 · Regime score 90 · The benchmark regime is risk-on based on 50/200-day EMA alignment.</text>
<line x1="72" y1="594.00" x2="1120" y2="594.00" stroke="#1e293b" stroke-width="1"/>
<text x="1130" y="598.00" fill="#64748b" font-family="monospace" font-size="11">101.12</text>
<line x1="72" y1="493.60" x2="1120" y2="493.60" stroke="#1e293b" stroke-width="1"/>
<text x="1130" y="497.60" fill="#64748b" font-family="monospace" font-size="11">107.45</text>
<line x1="72" y1="393.20" x2="1120" y2="393.20" stroke="#1e293b" stroke-width="1"/>
<text x="1130" y="397.20" fill="#64748b" font-family="monospace" font-size="11">113.78</text>
<line x1="72" y1="292.80" x2="1120" y2="292.80" stroke="#1e293b" stroke-width="1"/>
<text x="1130" y="296.80" fill="#64748b" font-family="monospace" font-size="11">120.11</text>
<line x1="72" y1="192.40" x2="1120" y2="192.40" stroke="#1e293b" stroke-width="1"/>
<text x="1130" y="196.40" fill="#64748b" font-family="monospace" font-size="11">126.44</text>
<line x1="72" y1="92.00" x2="1120" y2="92.00" stroke="#1e293b" stroke-width="1"/>
<text x="1130" y="96.00" fill="#64748b" font-family="monospace" font-size="11">132.77</text>
<line x1="72.00" y1="437.33" x2="72.00" y2="460.15" stroke="#22c55e" stroke-width="1"/>
<rect x="68.00" y="441.58" width="8.00" height="3.93" fill="#22c55e"/>
<line x1="87.19" y1="444.89" x2="87.19" y2="468.48" stroke="#ef4444" stroke-width="1"/>
<rect x="83.19" y="454.80" width="8.00" height="8.50" fill="#ef4444"/>
<line x1="102.38" y1="451.02" x2="102.38" y2="479.34" stroke="#22c55e" stroke-width="1"/>
<rect x="98.38" y="459.52" width="8.00" height="7.71" fill="#22c55e"/>
<line x1="117.57" y1="462.66" x2="117.57" y2="495.86" stroke="#22c55e" stroke-width="1"/>
<rect x="113.57" y="465.34" width="8.00" height="6.14" fill="#22c55e"/>
<line x1="132.75" y1="446.62" x2="132.75" y2="479.65" stroke="#22c55e" stroke-width="1"/>
<rect x="128.75" y="472.89" width="8.00" height="1.20" fill="#22c55e"/>
<line x1="147.94" y1="462.35" x2="147.94" y2="499.48" stroke="#ef4444" stroke-width="1"/>
<rect x="143.94" y="470.22" width="8.00" height="25.96" fill="#ef4444"/>
<line x1="163.13" y1="475.09" x2="163.13" y2="504.67" stroke="#ef4444" stroke-width="1"/>
<rect x="159.13" y="484.37" width="8.00" height="12.74" fill="#ef4444"/>
<line x1="178.32" y1="459.36" x2="178.32" y2="489.88" stroke="#22c55e" stroke-width="1"/>
<rect x="174.32" y="463.76" width="8.00" height="15.58" fill="#22c55e"/>
<line x1="193.51" y1="467.70" x2="193.51" y2="488.78" stroke="#ef4444" stroke-width="1"/>
<rect x="189.51" y="476.35" width="8.00" height="6.14" fill="#ef4444"/>
<line x1="208.70" y1="465.65" x2="208.70" y2="486.42" stroke="#ef4444" stroke-width="1"/>
<rect x="204.70" y="477.77" width="8.00" height="8.34" fill="#ef4444"/>
<line x1="223.88" y1="459.99" x2="223.88" y2="484.06" stroke="#ef4444" stroke-width="1"/>
<rect x="219.88" y="464.24" width="8.00" height="9.44" fill="#ef4444"/>
<line x1="239.07" y1="467.23" x2="239.07" y2="493.97" stroke="#ef4444" stroke-width="1"/>
<rect x="235.07" y="483.59" width="8.00" height="1.73" fill="#ef4444"/>
<line x1="254.26" y1="443.00" x2="254.26" y2="498.22" stroke="#22c55e" stroke-width="1"/>
<rect x="250.26" y="444.26" width="8.00" height="38.54" fill="#22c55e"/>
<line x1="269.45" y1="429.47" x2="269.45" y2="460.15" stroke="#ef4444" stroke-width="1"/>
<rect x="265.45" y="444.57" width="8.00" height="15.42" fill="#ef4444"/>
<line x1="284.64" y1="446.77" x2="284.64" y2="480.44" stroke="#ef4444" stroke-width="1"/>
<rect x="280.64" y="467.07" width="8.00" height="6.45" fill="#ef4444"/>
<line x1="299.83" y1="462.51" x2="299.83" y2="485.00" stroke="#ef4444" stroke-width="1"/>
<rect x="295.83" y="473.05" width="8.00" height="8.02" fill="#ef4444"/>
<line x1="315.01" y1="478.71" x2="315.01" y2="518.51" stroke="#ef4444" stroke-width="1"/>
<rect x="311.01" y="481.23" width="8.00" height="35.71" fill="#ef4444"/>
<line x1="330.20" y1="513.48" x2="330.20" y2="541.33" stroke="#22c55e" stroke-width="1"/>
<rect x="326.20" y="524.49" width="8.00" height="3.62" fill="#22c55e"/>
<line x1="345.39" y1="505.30" x2="345.39" y2="552.34" stroke="#ef4444" stroke-width="1"/>
<rect x="341.39" y="510.18" width="8.00" height="15.58" fill="#ef4444"/>
<line x1="360.58" y1="504.35" x2="360.58" y2="535.50" stroke="#ef4444" stroke-width="1"/>
<rect x="356.58" y="515.68" width="8.00" height="11.64" fill="#ef4444"/>
<line x1="375.77" y1="505.30" x2="375.77" y2="530.47" stroke="#ef4444" stroke-width="1"/>
<rect x="371.77" y="510.49" width="8.00" height="5.98" fill="#ef4444"/>
<line x1="390.96" y1="510.95" x2="390.96" y2="537.12" stroke="#22c55e" stroke-width="1"/>
<rect x="386.96" y="514.12" width="8.00" height="16.34" fill="#22c55e"/>
<line x1="406.14" y1="495.72" x2="406.14" y2="517.13" stroke="#22c55e" stroke-width="1"/>
<rect x="402.14" y="498.73" width="8.00" height="10.47" fill="#22c55e"/>
<line x1="421.33" y1="492.70" x2="421.33" y2="527.61" stroke="#ef4444" stroke-width="1"/>
<rect x="417.33" y="494.45" width="8.00" height="32.36" fill="#ef4444"/>
<line x1="436.52" y1="490.96" x2="436.52" y2="523.00" stroke="#22c55e" stroke-width="1"/>
<rect x="432.52" y="508.57" width="8.00" height="5.55" fill="#22c55e"/>
<line x1="451.71" y1="472.08" x2="451.71" y2="507.93" stroke="#22c55e" stroke-width="1"/>
<rect x="447.71" y="482.71" width="8.00" height="8.73" fill="#22c55e"/>
<line x1="466.90" y1="479.70" x2="466.90" y2="518.40" stroke="#ef4444" stroke-width="1"/>
<rect x="462.90" y="488.42" width="8.00" height="23.48" fill="#ef4444"/>
<line x1="482.09" y1="488.10" x2="482.09" y2="511.74" stroke="#22c55e" stroke-width="1"/>
<rect x="478.09" y="494.45" width="8.00" height="12.85" fill="#22c55e"/>
<line x1="497.28" y1="472.87" x2="497.28" y2="505.55" stroke="#22c55e" stroke-width="1"/>
<rect x="493.28" y="476.36" width="8.00" height="22.84" fill="#22c55e"/>
<line x1="512.46" y1="475.09" x2="512.46" y2="490.32" stroke="#ef4444" stroke-width="1"/>
<rect x="508.46" y="480.96" width="8.00" height="8.73" fill="#ef4444"/>
<line x1="527.65" y1="465.26" x2="527.65" y2="499.37" stroke="#22c55e" stroke-width="1"/>
<rect x="523.65" y="484.77" width="8.00" height="8.88" fill="#22c55e"/>
<line x1="542.84" y1="476.05" x2="542.84" y2="515.39" stroke="#ef4444" stroke-width="1"/>
<rect x="538.84" y="483.50" width="8.00" height="28.40" fill="#ef4444"/>
<line x1="558.03" y1="496.83" x2="558.03" y2="531.25" stroke="#ef4444" stroke-width="1"/>
<rect x="554.03" y="510.95" width="8.00" height="11.58" fill="#ef4444"/>
<line x1="573.22" y1="530.14" x2="573.22" y2="554.73" stroke="#ef4444" stroke-width="1"/>
<rect x="569.22" y="532.52" width="8.00" height="22.21" fill="#ef4444"/>
<line x1="588.41" y1="536.49" x2="588.41" y2="566.31" stroke="#22c55e" stroke-width="1"/>
<rect x="584.41" y="551.72" width="8.00" height="14.60" fill="#22c55e"/>
<line x1="603.59" y1="510.31" x2="603.59" y2="557.75" stroke="#ef4444" stroke-width="1"/>
<rect x="599.59" y="544.26" width="8.00" height="12.37" fill="#ef4444"/>
<line x1="618.78" y1="537.12" x2="618.78" y2="567.11" stroke="#22c55e" stroke-width="1"/>
<rect x="614.78" y="547.12" width="8.00" height="1.20" fill="#22c55e"/>
<line x1="633.97" y1="493.66" x2="633.97" y2="540.46" stroke="#22c55e" stroke-width="1"/>
<rect x="629.97" y="512.53" width="8.00" height="21.26" fill="#22c55e"/>
<line x1="649.16" y1="512.69" x2="649.16" y2="543.79" stroke="#ef4444" stroke-width="1"/>
<rect x="645.16" y="519.36" width="8.00" height="24.11" fill="#ef4444"/>
<line x1="664.35" y1="489.37" x2="664.35" y2="547.59" stroke="#22c55e" stroke-width="1"/>
<rect x="660.35" y="510.31" width="8.00" height="23.48" fill="#22c55e"/>
<line x1="679.54" y1="468.75" x2="679.54" y2="505.55" stroke="#ef4444" stroke-width="1"/>
<rect x="675.54" y="468.91" width="8.00" height="22.37" fill="#ef4444"/>
<line x1="694.72" y1="462.40" x2="694.72" y2="506.82" stroke="#ef4444" stroke-width="1"/>
<rect x="690.72" y="473.19" width="8.00" height="30.14" fill="#ef4444"/>
<line x1="709.91" y1="479.38" x2="709.91" y2="501.59" stroke="#22c55e" stroke-width="1"/>
<rect x="705.91" y="489.06" width="8.00" height="10.47" fill="#22c55e"/>
<line x1="725.10" y1="475.57" x2="725.10" y2="511.11" stroke="#22c55e" stroke-width="1"/>
<rect x="721.10" y="489.37" width="8.00" height="9.68" fill="#22c55e"/>
<line x1="740.29" y1="465.42" x2="740.29" y2="497.62" stroke="#22c55e" stroke-width="1"/>
<rect x="736.29" y="479.06" width="8.00" height="10.79" fill="#22c55e"/>
<line x1="755.48" y1="481.44" x2="755.48" y2="514.28" stroke="#ef4444" stroke-width="1"/>
<rect x="751.48" y="493.34" width="8.00" height="6.82" fill="#ef4444"/>
<line x1="770.67" y1="487.31" x2="770.67" y2="521.58" stroke="#ef4444" stroke-width="1"/>
<rect x="766.67" y="506.66" width="8.00" height="4.28" fill="#ef4444"/>
<line x1="785.86" y1="487.94" x2="785.86" y2="517.93" stroke="#22c55e" stroke-width="1"/>
<rect x="781.86" y="502.06" width="8.00" height="7.14" fill="#22c55e"/>
<line x1="801.04" y1="467.96" x2="801.04" y2="500.79" stroke="#22c55e" stroke-width="1"/>
<rect x="797.04" y="473.03" width="8.00" height="16.97" fill="#22c55e"/>
<line x1="816.23" y1="439.56" x2="816.23" y2="471.13" stroke="#22c55e" stroke-width="1"/>
<rect x="812.23" y="441.78" width="8.00" height="24.43" fill="#22c55e"/>
<line x1="831.42" y1="427.34" x2="831.42" y2="455.58" stroke="#22c55e" stroke-width="1"/>
<rect x="827.42" y="441.15" width="8.00" height="1.20" fill="#22c55e"/>
<line x1="846.61" y1="418.94" x2="846.61" y2="440.83" stroke="#22c55e" stroke-width="1"/>
<rect x="842.61" y="420.52" width="8.00" height="5.71" fill="#22c55e"/>
<line x1="861.80" y1="415.13" x2="861.80" y2="433.53" stroke="#22c55e" stroke-width="1"/>
<rect x="857.80" y="416.87" width="8.00" height="10.15" fill="#22c55e"/>
<line x1="876.99" y1="417.82" x2="876.99" y2="446.38" stroke="#ef4444" stroke-width="1"/>
<rect x="872.99" y="427.82" width="8.00" height="15.39" fill="#ef4444"/>
<line x1="892.17" y1="429.56" x2="892.17" y2="447.65" stroke="#22c55e" stroke-width="1"/>
<rect x="888.17" y="438.13" width="8.00" height="1.20" fill="#22c55e"/>
<line x1="907.36" y1="388.32" x2="907.36" y2="430.99" stroke="#22c55e" stroke-width="1"/>
<rect x="903.36" y="389.90" width="8.00" height="28.56" fill="#22c55e"/>
<line x1="922.55" y1="395.61" x2="922.55" y2="425.60" stroke="#ef4444" stroke-width="1"/>
<rect x="918.55" y="395.61" width="8.00" height="26.81" fill="#ef4444"/>
<line x1="937.74" y1="369.76" x2="937.74" y2="412.91" stroke="#ef4444" stroke-width="1"/>
<rect x="933.74" y="402.44" width="8.00" height="3.33" fill="#ef4444"/>
<line x1="952.93" y1="387.05" x2="952.93" y2="424.49" stroke="#ef4444" stroke-width="1"/>
<rect x="948.93" y="395.46" width="8.00" height="24.59" fill="#ef4444"/>
<line x1="968.12" y1="417.35" x2="968.12" y2="449.71" stroke="#ef4444" stroke-width="1"/>
<rect x="964.12" y="422.58" width="8.00" height="26.33" fill="#ef4444"/>
<line x1="983.30" y1="430.52" x2="983.30" y2="450.35" stroke="#22c55e" stroke-width="1"/>
<rect x="979.30" y="435.43" width="8.00" height="13.48" fill="#22c55e"/>
<line x1="998.49" y1="413.07" x2="998.49" y2="435.91" stroke="#22c55e" stroke-width="1"/>
<rect x="994.49" y="424.33" width="8.00" height="3.33" fill="#22c55e"/>
<line x1="1013.68" y1="408.31" x2="1013.68" y2="431.47" stroke="#ef4444" stroke-width="1"/>
<rect x="1009.68" y="421.63" width="8.00" height="1.20" fill="#ef4444"/>
<line x1="1028.87" y1="417.67" x2="1028.87" y2="450.03" stroke="#ef4444" stroke-width="1"/>
<rect x="1024.87" y="429.56" width="8.00" height="18.72" fill="#ef4444"/>
<line x1="1044.06" y1="415.13" x2="1044.06" y2="449.55" stroke="#22c55e" stroke-width="1"/>
<rect x="1040.06" y="415.29" width="8.00" height="28.08" fill="#22c55e"/>
<line x1="1059.25" y1="370.71" x2="1059.25" y2="436.23" stroke="#ef4444" stroke-width="1"/>
<rect x="1055.25" y="392.92" width="8.00" height="22.69" fill="#ef4444"/>
<line x1="1074.43" y1="401.80" x2="1074.43" y2="443.84" stroke="#ef4444" stroke-width="1"/>
<rect x="1070.43" y="408.15" width="8.00" height="28.40" fill="#ef4444"/>
<line x1="1089.62" y1="441.94" x2="1089.62" y2="462.56" stroke="#ef4444" stroke-width="1"/>
<rect x="1085.62" y="446.06" width="8.00" height="10.15" fill="#ef4444"/>
<line x1="1104.81" y1="416.40" x2="1104.81" y2="450.82" stroke="#22c55e" stroke-width="1"/>
<rect x="1100.81" y="420.05" width="8.00" height="15.23" fill="#22c55e"/>
<line x1="1120.00" y1="405.45" x2="1120.00" y2="437.66" stroke="#22c55e" stroke-width="1"/>
<rect x="1116.00" y="408.94" width="8.00" height="22.69" fill="#22c55e"/>
<polyline points="72.00,423.79 87.19,427.55 102.38,430.60 117.57,433.91 132.75,437.62 147.94,443.20 163.13,448.33 178.32,449.80 193.51,452.91 208.70,456.07 223.88,457.75 239.07,460.38 254.26,458.84 269.45,458.95 284.64,460.34 299.83,462.31 315.01,467.52 330.20,472.94 345.39,477.97 360.58,482.67 375.77,485.89 390.96,488.58 406.14,489.55 421.33,493.09 436.52,494.57 451.71,493.44 466.90,495.20 482.09,495.13 497.28,493.34 512.46,492.99 527.65,492.21 542.84,494.08 558.03,496.79 573.22,502.31 588.41,507.02 603.59,511.74 618.78,515.11 633.97,514.87 649.16,517.59 664.35,516.90 679.54,514.46 694.72,513.40 709.91,511.08 725.10,509.01 740.29,506.16 755.48,505.59 770.67,506.10 785.86,505.71 801.04,502.60 816.23,496.81 831.42,491.51 846.61,484.75 861.80,478.28 876.99,474.94 892.17,471.44 907.36,463.67 922.55,459.74 937.74,454.60 952.93,451.31 968.12,451.08 983.30,449.59 998.49,447.19 1013.68,444.80 1028.87,445.13 1044.06,442.29 1059.25,439.75 1074.43,439.44 1089.62,441.04 1104.81,439.04 1120.00,436.17" fill="none" stroke="#f59e0b" stroke-width="2"/>
<polyline points="72.00,457.56 87.19,457.79 102.38,457.86 117.57,458.15 132.75,458.73 147.94,460.20 163.13,461.64 178.32,461.73 193.51,462.54 208.70,463.46 223.88,463.87 239.07,464.71 254.26,463.90 269.45,463.75 284.64,464.13 299.83,464.80 315.01,466.84 330.20,469.10 345.39,471.33 360.58,473.52 375.77,475.21 390.96,476.73 406.14,477.59 421.33,479.52 436.52,480.66 451.71,480.74 466.90,481.97 482.09,482.46 497.28,482.22 512.46,482.51 527.65,482.60 542.84,483.75 558.03,485.27 573.22,487.99 588.41,490.49 603.59,493.09 618.78,495.20 633.97,495.88 649.16,497.75 664.35,498.24 679.54,497.97 694.72,498.18 709.91,497.82 725.10,497.49 740.29,496.77 755.48,496.90 770.67,497.45 785.86,497.63 801.04,496.67 816.23,494.52 831.42,492.42 846.61,489.60 861.80,486.75 876.99,485.04 892.17,483.20 907.36,479.54 922.55,477.30 937.74,474.50 952.93,472.36 968.12,471.44 983.30,470.03 998.49,468.24 1013.68,466.43 1028.87,465.72 1044.06,463.74 1059.25,461.85 1074.43,460.86 1089.62,460.68 1104.81,459.09 1120.00,457.12" fill="none" stroke="#38bdf8" stroke-width="2"/>
<line x1="72" y1="436.17" x2="1120" y2="436.17" stroke="#22d3ee" stroke-width="1.5"/>
<text x="78" y="431.17" fill="#22d3ee" font-family="sans-serif" font-size="11">Pullback entry 111.07</text>
<line x1="72" y1="462.56" x2="1120" y2="462.56" stroke="#94a3b8" stroke-width="1.5" stroke-dasharray="6 4"/>
<text x="78" y="457.56" fill="#94a3b8" font-family="sans-serif" font-size="11">Swing low 109.41</text>
<line x1="72" y1="514.39" x2="1120" y2="514.39" stroke="#fb7185" stroke-width="1.5"/>
<text x="78" y="509.39" fill="#fb7185" font-family="sans-serif" font-size="11">Stop 106.14</text>
<line x1="72" y1="277.09" x2="1120" y2="277.09" stroke="#4ade80" stroke-width="1.5"/>
<text x="78" y="272.09" fill="#4ade80" font-family="sans-serif" font-size="11">TP1 121.10</text>
<line x1="72" y1="118.89" x2="1120" y2="118.89" stroke="#c084fc" stroke-width="1.5"/>
<text x="78" y="113.89" fill="#c084fc" font-family="sans-serif" font-size="11">TP2 131.07</text>
<line x1="1120.00" y1="92" x2="1120.00" y2="594" stroke="#f8fafc" stroke-width="1" stroke-dasharray="3 4"/>
<circle cx="1120.00" cy="408.94" r="5" fill="#f8fafc"/>
<text x="1112.00" y="107" text-anchor="end" fill="#f8fafc" font-family="sans-serif" font-size="11">Signal</text>
<text x="72.00" y="622" text-anchor="middle" fill="#64748b" font-family="monospace" font-size="11">2026-04-14</text>
<text x="284.64" y="622" text-anchor="middle" fill="#64748b" font-family="monospace" font-size="11">2026-05-04</text>
<text x="497.28" y="622" text-anchor="middle" fill="#64748b" font-family="monospace" font-size="11">2026-05-22</text>
<text x="694.72" y="622" text-anchor="middle" fill="#64748b" font-family="monospace" font-size="11">2026-06-11</text>
<text x="907.36" y="622" text-anchor="middle" fill="#64748b" font-family="monospace" font-size="11">2026-07-02</text>
<text x="1120.00" y="622" text-anchor="middle" fill="#64748b" font-family="monospace" font-size="11">2026-07-23</text>
<line x1="72" y1="632" x2="96" y2="632" stroke="#f59e0b" stroke-width="2"/>
<text x="102" y="636" fill="#94a3b8" font-family="sans-serif" font-size="11">EMA20</text>
<line x1="176" y1="632" x2="200" y2="632" stroke="#38bdf8" stroke-width="2"/>
<text x="206" y="636" fill="#94a3b8" font-family="sans-serif" font-size="11">EMA50</text>
<text x="1120" y="654" text-anchor="end" fill="#475569" font-family="sans-serif" font-size="11">Replay evidence · Frozen strategy · Paper trading only</text>
</svg>